<svg width="208" height="44" viewBox="0 0 208 44" fill="none" xmlns="http://www.w3.org/2000/svg">
<path d="M50.0379 22.7514L49.8326 23.6791C49.8179 23.7233 48.9817 27.552 46.5906 31.2334C43.554 35.9014 39.4612 38.2722 34.4295 38.2722C30.8061 38.2722 27.9455 36.9764 25.9358 34.3994C23.1926 30.9094 22.3418 25.7113 22.4151 21.8531C23.5007 22.0888 24.5862 22.2066 25.6278 22.2066C28.1069 22.2066 30.4394 21.5439 32.5665 20.2333C37.1581 17.406 38.8304 12.0311 36.3659 8.01105C34.9723 5.74331 32.3758 4.38855 29.4125 4.38855C27.4908 4.38855 25.5544 4.94812 23.8234 6.00837C20.7721 7.89325 19.2905 10.5586 18.2196 13.9602C14.5229 11.6041 11.809 8.497 11.7797 8.46755L11.1489 7.74599L6.88002 11.4421L7.49614 12.1637C7.62817 12.3109 10.7381 15.904 15.1683 18.7313C15.7405 19.0994 16.3272 19.4381 16.8994 19.7474C16.3859 24.9308 17.2808 32.5439 21.5056 37.9041C24.6009 41.8505 29.0751 43.9269 34.4295 43.9269C51.1528 43.9269 55.319 25.0192 55.3483 24.8277L55.539 23.9L50.0379 22.7514ZM31.5543 10.9709C32.2584 12.1342 31.7303 14.1075 29.6179 15.418C28.415 16.169 27.0654 16.5372 25.6131 16.5372C24.9089 16.5372 24.1755 16.4488 23.4126 16.2721C24.2928 13.2534 25.217 11.7808 26.772 10.8236C27.5788 10.323 28.5177 10.0432 29.4125 10.0432C30.3954 10.0579 31.2022 10.3966 31.5543 10.9709Z" fill="#21BA9D"/>
<path d="M50.4047 15.948C50.4047 13.7391 52.0917 12.0162 54.3215 12.0162C56.6099 12.0162 58.2676 13.7391 58.2676 15.948C58.2676 18.1568 56.6099 19.8797 54.3215 19.8797C52.077 19.8797 50.4047 18.1568 50.4047 15.948Z" fill="#21BA9D"/>
<path d="M0 3.93174C0 1.7229 1.687 0 3.91678 0C6.20524 0 7.8629 1.7229 7.8629 3.93174C7.8629 6.14059 6.20524 7.86348 3.91678 7.86348C1.687 7.86348 0 6.14059 0 3.93174Z" fill="#21BA9D"/>
<path d="M70.2527 11.5594C68.9764 10.1752 68.9764 8.20199 70.2527 6.86196C71.5876 5.52193 73.656 5.52193 74.9763 6.86196C76.2525 8.20199 76.2525 10.1752 74.9323 11.5594C73.612 12.8553 71.6316 12.8553 70.2527 11.5594ZM69.9593 40.1419V15.4175H75.2843V40.1419H69.9593Z" fill="white"/>
<path d="M88.839 20.5572H83.9541V32.4407C83.9541 35.6067 84.9663 36.5639 88.839 35.3564V40.1422C81.5776 41.9829 78.6437 39.509 78.6437 33.0298V10.0872L83.9687 8.5116V15.4326H88.8537V20.5572H88.839Z" fill="white"/>
<path d="M97.9929 19.5701C99.3278 16.5072 101.88 14.9757 105.577 14.9757V20.7629C103.553 20.6156 101.792 21.1163 100.252 22.2502C98.7264 23.3399 97.9929 25.1658 97.9929 27.6839V40.1418H92.6678V15.4175H97.9929V19.5701Z" fill="white"/>
<path d="M154.148 15.4169H159.957L150.349 40.1412H144.187L134.579 15.4169H140.388L147.283 34.2068L154.148 15.4169Z" fill="white"/>
<path d="M165.517 30.0542C166.309 33.8092 169.316 35.8856 173.395 35.8856C176.196 35.8856 178.324 34.84 179.746 32.8226L184.133 35.3996C181.727 39.0074 178.118 40.7892 173.351 40.7892C169.36 40.7892 166.118 39.5522 163.654 37.1372C161.189 34.6633 159.957 31.5562 159.957 27.8012C159.957 24.0903 161.189 21.0274 163.595 18.5535C166.001 16.0354 169.155 14.7985 172.954 14.7985C176.548 14.7985 179.497 16.0796 181.815 18.6124C184.133 21.1305 185.306 24.2523 185.306 27.8601C185.306 28.4049 185.262 29.1412 185.116 30.0837H165.517V30.0542ZM179.952 25.7101C179.218 21.7048 176.402 19.6285 172.91 19.6285C168.964 19.6285 166.206 21.9551 165.473 25.7101H179.952Z" fill="white"/>
<path d="M194.079 32.4548V8.49621V4.04907H188.768V10.0719V33.0144C188.768 36.6958 189.722 39.0813 191.878 40.1268C193.507 40.922 195.839 40.9368 198.964 40.1416V35.3557C195.091 36.578 194.079 35.6208 194.079 32.4548Z" fill="white"/>
<path d="M131.968 32.9113V15.4173H126.657V18.9367C124.633 16.1683 121.787 14.7841 118.046 14.7841C114.643 14.7841 111.782 16.021 109.376 18.5391C106.956 21.0572 105.782 24.1201 105.782 27.7868C105.782 31.3946 106.956 34.5164 109.376 37.0345C111.782 39.5526 114.643 40.7895 118.046 40.7895C121.787 40.7895 125.029 39.4053 127.053 36.5927C127.083 36.7105 127.919 40.7895 132.789 40.7895C134.843 40.7895 136.867 40.1563 136.867 40.1563V35.3705C132.481 36.843 131.968 34.6342 131.968 32.9113ZM124.442 33.4561C122.961 34.9434 121.097 35.6797 118.882 35.6797C116.667 35.6797 114.79 34.9434 113.323 33.4561C111.841 31.9247 111.107 30.0398 111.107 27.7721C111.107 25.5043 111.841 23.6194 113.323 22.1321C114.804 20.6007 116.667 19.8644 118.882 19.8644C121.097 19.8644 122.975 20.6007 124.442 22.1321C125.924 23.6194 126.657 25.4896 126.657 27.7721C126.657 30.0545 125.909 31.9247 124.442 33.4561Z" fill="white"/>
<path d="M202.279 39.7737C201.003 38.3895 201.003 36.4162 202.279 35.0762C203.614 33.7362 205.682 33.7362 207.003 35.0762C208.279 36.4162 208.279 38.3895 206.959 39.7737C205.638 41.0548 203.658 41.0548 202.279 39.7737Z" fill="#21BA9D"/>
</svg>
