<svg width="208" height="45" viewBox="0 0 208 45" fill="none" xmlns="http://www.w3.org/2000/svg">
<path d="M50.0379 23.7319L49.8326 24.6596C49.8179 24.7038 48.9817 28.5324 46.5906 32.2138C43.554 36.8819 39.4612 39.2527 34.4295 39.2527C30.8061 39.2527 27.9455 37.9568 25.9358 35.3798C23.1926 31.8899 22.3418 26.6917 22.4151 22.8336C23.5007 23.0692 24.5862 23.187 25.6278 23.187C28.1069 23.187 30.4394 22.5244 32.5665 21.2138C37.1581 18.3865 38.8304 13.0116 36.3659 8.99152C34.9723 6.72378 32.3758 5.36902 29.4125 5.36902C27.4908 5.36902 25.5544 5.92859 23.8234 6.98884C20.7721 8.87372 19.2905 11.5391 18.2196 14.9407C14.5229 12.5846 11.809 9.47747 11.7797 9.44802L11.1489 8.72646L6.88002 12.4226L7.49614 13.1441C7.62817 13.2914 10.7381 16.8845 15.1683 19.7118C15.7405 20.0799 16.3272 20.4186 16.8994 20.7278C16.3859 25.9113 17.2808 33.5244 21.5056 38.8845C24.6009 42.831 29.0751 44.9073 34.4295 44.9073C51.1528 44.9073 55.319 25.9996 55.3483 25.8082L55.539 24.8805L50.0379 23.7319ZM31.5543 11.9514C32.2584 13.1147 31.7303 15.0879 29.6179 16.3985C28.415 17.1495 27.0654 17.5177 25.6131 17.5177C24.9089 17.5177 24.1755 17.4293 23.4126 17.2526C24.2928 14.2338 25.217 12.7613 26.772 11.8041C27.5788 11.3034 28.5177 11.0237 29.4125 11.0237C30.3954 11.0384 31.2022 11.3771 31.5543 11.9514Z" fill="#878787"/>
<path d="M50.4047 16.9284C50.4047 14.7196 52.0917 12.9967 54.3215 12.9967C56.6099 12.9967 58.2676 14.7196 58.2676 16.9284C58.2676 19.1373 56.6099 20.8602 54.3215 20.8602C52.077 20.8602 50.4047 19.1373 50.4047 16.9284Z" fill="#878787"/>
<path d="M0 4.91221C0 2.70337 1.687 0.980469 3.91678 0.980469C6.20524 0.980469 7.8629 2.70337 7.8629 4.91221C7.8629 7.12105 6.20524 8.84395 3.91678 8.84395C1.687 8.84395 0 7.12105 0 4.91221Z" fill="#878787"/>
<path d="M70.2527 12.5399C68.9764 11.1557 68.9764 9.18246 70.2527 7.84243C71.5876 6.50239 73.656 6.50239 74.9763 7.84243C76.2525 9.18246 76.2525 11.1557 74.9323 12.5399C73.612 13.8358 71.6316 13.8358 70.2527 12.5399ZM69.9593 41.1223V16.398H75.2843V41.1223H69.9593Z" fill="#A6A6A6"/>
<path d="M88.839 21.5376H83.9541V33.4212C83.9541 36.5872 84.9663 37.5444 88.839 36.3369V41.1227C81.5776 42.9634 78.6437 40.4895 78.6437 34.0102V11.0677L83.9687 9.49207V16.4131H88.8537V21.5376H88.839Z" fill="#A6A6A6"/>
<path d="M97.9929 20.5506C99.3278 17.4876 101.88 15.9562 105.577 15.9562V21.7433C103.553 21.5961 101.792 22.0968 100.252 23.2306C98.7264 24.3203 97.9929 26.1463 97.9929 28.6644V41.1223H92.6678V16.3979H97.9929V20.5506Z" fill="#A6A6A6"/>
<path d="M154.148 16.3973H159.957L150.349 41.1217H144.187L134.579 16.3973H140.388L147.283 35.1872L154.148 16.3973Z" fill="#A6A6A6"/>
<path d="M165.517 31.0347C166.309 34.7897 169.316 36.866 173.395 36.866C176.196 36.866 178.324 35.8205 179.746 33.8031L184.133 36.3801C181.727 39.9879 178.118 41.7697 173.351 41.7697C169.36 41.7697 166.118 40.5327 163.654 38.1177C161.189 35.6438 159.957 32.5367 159.957 28.7817C159.957 25.0708 161.189 22.0079 163.595 19.534C166.001 17.0159 169.155 15.7789 172.954 15.7789C176.548 15.7789 179.497 17.0601 181.815 19.5929C184.133 22.1109 185.306 25.2328 185.306 28.8406C185.306 29.3854 185.262 30.1217 185.116 31.0641H165.517V31.0347ZM179.952 26.6906C179.218 22.6852 176.402 20.6089 172.91 20.6089C168.964 20.6089 166.206 22.9356 165.473 26.6906H179.952Z" fill="#A6A6A6"/>
<path d="M194.079 33.4353V9.47668V5.02954H188.768V11.0523V33.9948C188.768 37.6762 189.722 40.0618 191.878 41.1073C193.507 41.9025 195.839 41.9172 198.964 41.122V36.3362C195.091 37.5584 194.079 36.6013 194.079 33.4353Z" fill="#A6A6A6"/>
<path d="M131.968 33.8918V16.3977H126.657V19.9172C124.633 17.1487 121.787 15.7645 118.046 15.7645C114.643 15.7645 111.782 17.0015 109.376 19.5196C106.956 22.0376 105.782 25.1006 105.782 28.7673C105.782 32.375 106.956 35.4969 109.376 38.0149C111.782 40.533 114.643 41.77 118.046 41.77C121.787 41.77 125.029 40.3858 127.053 37.5732C127.083 37.691 127.919 41.77 132.789 41.77C134.843 41.77 136.867 41.1368 136.867 41.1368V36.351C132.481 37.8235 131.968 35.6147 131.968 33.8918ZM124.442 34.4366C122.961 35.9239 121.097 36.6602 118.882 36.6602C116.667 36.6602 114.79 35.9239 113.323 34.4366C111.841 32.9052 111.107 31.0203 111.107 28.7525C111.107 26.4848 111.841 24.5999 113.323 23.1126C114.804 21.5811 116.667 20.8449 118.882 20.8449C121.097 20.8449 122.975 21.5811 124.442 23.1126C125.924 24.5999 126.657 26.4701 126.657 28.7525C126.657 31.035 125.909 32.9052 124.442 34.4366Z" fill="#A6A6A6"/>
<path d="M202.279 40.7541C201.003 39.3699 201.003 37.3967 202.279 36.0567C203.614 34.7166 205.682 34.7166 207.003 36.0567C208.279 37.3967 208.279 39.3699 206.959 40.7541C205.638 42.0353 203.658 42.0353 202.279 40.7541Z" fill="#707070"/>
</svg>
