<svg width="201" height="45" viewBox="0 0 201 45" fill="none" xmlns="http://www.w3.org/2000/svg">
<path d="M201 0.22406V6.71743L184.865 23.5357H180.4V28.1871L164.282 44.9898H157.823V38.5003L173.868 21.7754H178.5V16.9413L194.541 0.22406H201Z" fill="#5B735B"/>
<path d="M201 38.4343L200.996 44.881H194.511L182.048 31.937V25.2688H188.32L201 38.4343Z" fill="#5B735B"/>
<path d="M176.775 13.2769V19.949H170.503L157.823 6.78353L157.827 0.336792H164.313L176.775 13.2769Z" fill="#5B735B"/>
<path d="M8.49158 0.220154H0.630371V44.7333H8.49158V25.9721L4.56292 22.1445L8.49158 18.4451V0.220154Z" fill="#5B735B"/>
<path d="M30.3575 0.22406H41.7471L18.4588 22.1989L41.6072 44.7333H30.2836L7.08084 22.1445L30.3575 0.22406Z" fill="#5B735B"/>
<path d="M121.863 0.22406V8.08527H105.585V44.7333H97.7238V8.08527H81.4495L77.9483 0.22406H121.863Z" fill="#5B735B"/>
<path d="M124.681 44.8382V0.220154H154.583V8.08525H131.765V18.7715H150.584V26.6444H131.765V36.977H154.583V44.8382H124.681Z" fill="#5B735B"/>
<path d="M70.9188 0.22404L67.8994 7.28086L51.8778 44.7333L43.1345 44.7294L62.634 0.220154L70.9188 0.22404Z" fill="#5B735B"/>
<path d="M94.1605 44.7333H85.355L69.687 7.93372L73.0289 0.22406H74.6609L94.1605 44.7333Z" fill="#5B735B"/>
</svg>
