<svg width="201" height="45" viewBox="0 0 201 45" fill="none" xmlns="http://www.w3.org/2000/svg">
<path d="M201 0.00390625V6.49727L184.865 23.3155H180.4V27.967L164.282 44.7697H157.823V38.2802L173.868 21.5552H178.5V16.7211L194.541 0.00390625H201Z" fill="#797979"/>
<path d="M201 38.2141L200.996 44.6609H194.511L182.048 31.7169V25.0486H188.32L201 38.2141Z" fill="#797979"/>
<path d="M176.775 13.0567V19.7289H170.503L157.823 6.56337L157.827 0.116638H164.313L176.775 13.0567Z" fill="#797979"/>
<path d="M8.49158 0H0.630371V44.5132H8.49158V25.752L4.56292 21.9243L8.49158 18.2249V0Z" fill="#797979"/>
<path d="M30.3575 0.00390625H41.7471L18.4588 21.9788L41.6072 44.5132H30.2836L7.08084 21.9244L30.3575 0.00390625Z" fill="#797979"/>
<path d="M121.863 0.00390625V7.86511H105.585V44.5132H97.7238V7.86511H81.4495L77.9483 0.00390625H121.863Z" fill="#797979"/>
<path d="M124.681 44.6181V0H154.583V7.86509H131.765V18.5514H150.584V26.4242H131.765V36.7569H154.583V44.6181H124.681Z" fill="#797979"/>
<path d="M70.9188 0.00388592L67.8994 7.06071L51.8778 44.5132L43.1345 44.5093L62.634 0L70.9188 0.00388592Z" fill="#797979"/>
<path d="M94.1605 44.5132H85.355L69.687 7.71356L73.0289 0.00390625H74.6609L94.1605 44.5132Z" fill="#797979"/>
</svg>
