<svg width="124" height="86" viewBox="0 0 124 86" fill="none" xmlns="http://www.w3.org/2000/svg">
<path d="M4.47001 76.8L11.19 68.61H9.59001L2.14001 77.69H4.26001C4.37001 77.69 4.48001 77.74 4.55001 77.84L9.35001 84.84C9.63001 85.21 10.06 85.42 10.52 85.42H14.1C12.85 85.02 11.78 84.31 11.02 83.2L6.92001 77.23C6.71001 76.96 6.39001 76.8 6.05001 76.8H4.47001Z" fill="#FFF1E6"/>
<path d="M2.31 68.61H0V85.42H2.31V68.61Z" fill="#FFF1E6"/>
<path d="M14.78 68.61H17.09V85.42H14.78V68.61Z" fill="#FFF1E6"/>
<path d="M21.48 68.61L33.17 81.61V68.61H34.22V85.42H33.5L21 71.52V85.42H19.95V70.35L18.38 68.61H21.48Z" fill="#FFF1E6"/>
<path d="M51.59 72.97H50.57C49.87 71.21 47.89 69.29 44.79 69.29C40.29 69.29 38.38 73.41 38.38 77.03C38.38 80.9 41.03 84.88 44.64 84.88C47.61 84.88 49.31 83.54 49.31 83.54V77.41H43.76V76.36H51.59V85.44L49.31 84.55C49.31 84.55 46.98 85.94 44.57 85.94C40.38 85.94 36.04 82.6 36.04 77C36.04 72.05 39.62 68.13 44.61 68.13C48.72 68.13 51.09 71.09 51.59 72.97Z" fill="#FFF1E6"/>
<path d="M93.24 68.61L105.48 82.22V68.61H106.3V85.42H105.57L93.07 71.52V85.42H92.25V70.62L90.45 68.62H93.24V68.61Z" fill="#FFF1E6"/>
<path d="M75.0601 85.41L81.9601 70.46C81.9601 69.79 81.2901 69.25 80.2901 69.25V68.6H83.6501L91.3101 85.41H88.7701L86.6101 80.66H78.4101L76.2201 85.41H75.0601ZM78.8901 79.62H86.1201L82.5301 71.74L78.8901 79.62Z" fill="#FFF1E6"/>
<path d="M123.58 72.97H122.56C121.86 71.21 119.88 69.29 116.78 69.29C112.28 69.29 110.37 73.41 110.37 77.03C110.37 80.9 113.02 84.88 116.63 84.88C119.6 84.88 121.3 83.54 121.3 83.54V77.41H115.75V76.36H123.58V85.44L121.3 84.55C121.3 84.55 118.97 85.94 116.56 85.94C112.37 85.94 108.03 82.6 108.03 77C108.03 72.05 111.61 68.13 116.6 68.13C120.71 68.13 123.08 71.09 123.58 72.97Z" fill="#FFF1E6"/>
<path d="M65.9001 76.8L72.6201 68.61H71.0101L63.5601 77.69H65.6801C65.7901 77.69 65.9001 77.74 65.9701 77.84L70.7701 84.84C71.0501 85.21 71.4801 85.42 71.9401 85.42H75.5201C74.2701 85.02 73.2001 84.31 72.4401 83.2L68.3401 77.23C68.1301 76.96 67.8101 76.8 67.4701 76.8H65.9001Z" fill="#FFF1E6"/>
<path d="M63.7401 68.61H61.4301V85.42H63.7401V68.61Z" fill="#FFF1E6"/>
<path d="M61.7899 0C47.8099 0 36.4399 11.37 36.4399 25.35C36.4399 39.33 47.8099 50.7 61.7899 50.7C75.7699 50.7 87.1399 39.33 87.1399 25.35C87.1399 11.37 75.7699 0 61.7899 0ZM83.4099 25.35C83.4099 28.22 82.9099 30.96 82.0299 33.5C80.7999 32.83 79.7099 31.93 78.8699 30.72L70.0699 17.93C69.7299 17.49 69.2099 17.23 68.6599 17.23H66.1199L66.2399 17.09H66.2299L74.7599 6.69C79.9999 10.97 83.4099 17.73 83.4099 25.35ZM55.7999 2.91C56.7999 2.6 57.8299 2.36 58.8899 2.21V20.92C58.8899 22.18 58.4499 23.4 57.6499 24.37L51.9499 31.31V8.12C51.9499 5.73 53.5099 3.62 55.7999 2.91ZM63.6299 17.09L62.6099 18.33V2.02C66.4699 2.18 70.0599 3.43 73.1499 5.5L63.6299 17.09ZM40.1599 25.35C40.1599 18.01 43.3099 11.45 48.2299 7.17V43.54C43.3199 39.25 40.1599 32.7 40.1599 25.35ZM51.9499 42.6V31.75H60.1099C60.2999 31.75 60.4699 31.84 60.5799 31.98L69.0399 44.33C69.4899 44.92 70.1099 45.27 70.9299 45.27H73.0299C69.7499 47.44 65.8999 48.72 61.7799 48.72C59.6599 48.72 57.6199 48.38 55.6899 47.76C53.4599 47.05 51.9499 44.95 51.9499 42.6ZM76.8399 42.09C75.3999 43.6 72.8799 43.44 71.6799 41.73C71.6699 41.72 71.6599 41.7 71.6499 41.69L64.4099 31.01C64.0699 30.57 63.5499 30.31 62.9999 30.31H55.3799L64.9399 18.66H65.7599C65.9499 18.66 66.1199 18.75 66.2299 18.89L76.1699 33.35C76.6199 33.94 77.3199 34.29 78.0599 34.29H81.7599C80.6199 37.26 78.9399 39.9 76.8399 42.09Z" fill="#FFF1E6"/>
</svg>
