<svg width="458" height="70" viewBox="0 0 458 70" fill="none" xmlns="http://www.w3.org/2000/svg">
<g clip-path="url(#clip0_124_1002)">
<path d="M95.2281 19.8446C95.2281 10.4879 87.8191 0.386475 75.8464 0.386475H0V69.1485H10.7888V11.1753H73.7077C78.1187 11.1753 82.7971 14.3642 82.7971 20.2646C82.7971 25.8787 78.0805 29.354 73.7077 29.354H19.0762V39.3026L41.9905 57.9014C52.1874 65.9023 57.3049 69.1294 69.1058 69.1294H93.8914V58.3406H69.1058C62.1169 58.3406 60.2074 57.1376 51.5763 50.6452L37.6368 39.3026H75.8655C85.3749 39.3217 95.2281 32.0273 95.2281 19.8446Z" fill="#ABABAB"/>
<path d="M458 48.1055C458 62.0832 445.989 69.1485 437.129 69.1485H364.491V58.3596H434.742C439.936 58.3596 445.015 54.1778 445.015 48.1055C445.015 42.0332 440.089 37.8322 434.742 37.8322H406.92V27.0434L430.789 11.1561H362.371C358.495 11.1561 356.318 12.2446 353.568 17.152L324.161 69.1294H309.955L282.457 20.8183L254.96 69.1294H240.753L211.347 17.152C208.501 12.0727 206.42 11.1561 202.544 11.1561H123.738C118.735 11.1561 114.667 15.2234 114.667 20.2264V20.2837C114.667 25.2866 118.735 29.3539 123.738 29.3539H187.325V40.1427H124.062C118.964 40.1427 114.591 44.3055 114.686 49.3849C114.744 51.8481 115.756 54.0441 117.36 55.6672C119.021 57.3285 121.293 58.3405 123.814 58.3405H200.424V69.1294H119.976C110.524 69.1294 102.79 61.3958 102.79 51.9245C102.79 40.6583 112.853 35.2926 118.429 35.2926V34.2041C109.206 33.9177 102.79 26.1841 102.79 17.553C102.79 8.61646 109.722 0.36731 119.976 0.36731H205.427C212.989 0.36731 216.178 2.79241 220.493 10.3923L247.57 58.3214H248.105L280.223 0.386405H284.672L316.791 58.3405H317.325L344.441 10.4114C348.661 2.92608 351.907 0.386405 359.469 0.386405H453.436V11.1752L429.567 27.0625H436.957C445.798 27.0625 458 33.6122 458 48.1055Z" fill="#ABABAB"/>
</g>
<defs>
<clipPath id="clip0_124_1002">
<rect width="458" height="68.7621" fill="white" transform="translate(0 0.386475)"/>
</clipPath>
</defs>
</svg>
