<svg width="458" height="69" viewBox="0 0 458 69" fill="none" xmlns="http://www.w3.org/2000/svg">
<g clip-path="url(#clip0_124_1001)">
<path d="M95.2281 19.4581C95.2281 10.1014 87.8191 0 75.8464 0H0V68.7621H10.7888V10.7888H73.7077C78.1187 10.7888 82.7971 13.9777 82.7971 19.8782C82.7971 25.4922 78.0805 28.9675 73.7077 28.9675H19.0762V38.9162L41.9905 57.5149C52.1874 65.5159 57.3049 68.743 69.1058 68.743H93.8914V57.9541H69.1058C62.1169 57.9541 60.2074 56.7511 51.5763 50.2587L37.6368 38.9162H75.8655C85.3749 38.9352 95.2281 31.6409 95.2281 19.4581Z" fill="white"/>
<path d="M458 47.719C458 61.6967 445.989 68.762 437.129 68.762H364.491V57.9732H434.742C439.936 57.9732 445.015 53.7913 445.015 47.719C445.015 41.6467 440.089 37.4457 434.742 37.4457H406.92V26.6569L430.789 10.7697H362.371C358.495 10.7697 356.318 11.8581 353.568 16.7656L324.161 68.7429H309.955L282.457 20.4319L254.96 68.7429H240.753L211.347 16.7656C208.501 11.6862 206.42 10.7697 202.544 10.7697H123.738C118.735 10.7697 114.667 14.837 114.667 19.8399V19.8972C114.667 24.9002 118.735 28.9674 123.738 28.9674H187.325V39.7563H124.062C118.964 39.7563 114.591 43.919 114.686 48.9984C114.744 51.4617 115.756 53.6576 117.36 55.2807C119.021 56.942 121.293 57.9541 123.814 57.9541H200.424V68.7429H119.976C110.524 68.7429 102.79 61.0093 102.79 51.5381C102.79 40.2718 112.853 34.9061 118.429 34.9061V33.8176C109.206 33.5312 102.79 25.7976 102.79 17.1666C102.79 8.22999 109.722 -0.019165 119.976 -0.019165H205.427C212.989 -0.019165 216.178 2.40593 220.493 10.0058L247.57 57.935H248.105L280.223 -6.97728e-05H284.672L316.791 57.9541H317.325L344.441 10.0249C348.661 2.5396 351.907 -6.97728e-05 359.469 -6.97728e-05H453.436V10.7888L429.567 26.676H436.957C445.798 26.676 458 33.2257 458 47.719Z" fill="white"/>
</g>
<defs>
<clipPath id="clip0_124_1001">
<rect width="458" height="68.7621" fill="white"/>
</clipPath>
</defs>
</svg>
