<svg width="194" height="227" viewBox="0 0 194 227" fill="none" xmlns="http://www.w3.org/2000/svg">
<path d="M5.55646 139.33C6.21466 137.667 6.75551 136.187 8.0362 135.116C8.32704 134.871 8.40357 134.376 8.69441 134.136C9.37302 133.57 10.118 133.075 10.8476 132.564C11.1333 132.36 11.4446 132.197 11.7354 132.003C12.2916 131.626 12.7763 131.774 13.1947 132.212C13.8682 132.911 14.5009 133.651 15.1744 134.345C15.8632 135.054 16.5316 135.794 17.2919 136.417C18.6695 137.544 20.2512 137.534 21.8585 136.988C23.8688 136.31 25.3281 134.927 26.6088 133.294C28.3334 131.09 29.4763 128.59 30.4764 126.003C31.7366 122.748 33.8694 120.166 36.6451 118.115C38.6044 116.666 40.778 115.543 43.0996 114.839C45.0946 114.237 47.1712 113.91 49.2071 113.441C49.4265 113.39 49.6714 113.201 49.7837 113.007C50.5235 111.721 51.1103 110.323 51.993 109.15C52.7175 108.191 53.7125 107.389 54.7125 106.696C56.5749 105.389 58.7383 104.9 60.9782 104.716C61.0394 104.711 61.1007 104.665 61.366 104.542C60.6262 104.221 60.0139 103.996 59.4373 103.7C57.8097 102.864 56.1616 102.052 54.585 101.129C52.3348 99.8074 50.0898 98.4604 47.9315 96.9858C46.559 96.0469 45.3344 94.8836 44.0741 93.7866C43.0077 92.858 41.8852 91.9702 40.9566 90.9191C38.8595 88.5516 36.8441 86.1127 34.844 83.6686C34.1858 82.8625 33.6449 81.9542 33.1041 81.0613C32.4816 80.0358 32.604 79.3061 33.4459 78.4387C33.5327 78.3469 33.5837 78.2193 33.6143 78.1683C32.7418 77.7652 31.8897 77.4029 31.0682 76.9897C29.961 76.4386 29.8539 75.1375 30.8335 74.4028C30.9458 74.3211 31.0478 74.2242 31.2468 74.0609C31.0019 73.8925 30.8029 73.7548 30.609 73.617C29.8335 73.0608 29.0324 72.5353 28.2925 71.9332C27.8639 71.5812 28.0629 70.7138 28.6038 70.4484C29.0171 70.2443 29.4712 70.1372 30.0222 69.9484C29.7977 69.78 29.6651 69.6576 29.5171 69.581C28.8385 69.229 28.1599 68.8769 27.466 68.5402C26.8588 68.2493 26.4608 67.8054 26.5373 67.1064C26.6241 66.3053 27.1445 65.8104 27.8742 65.5145C28.0782 65.4328 28.2823 65.3512 28.6599 65.1981C28.0578 64.8665 27.5731 64.6675 27.1649 64.3664C26.5271 63.897 25.874 63.4174 25.3485 62.8357C24.9352 62.3816 25.1699 61.7642 25.7363 61.4683C25.9659 61.3509 26.2159 61.2642 26.4608 61.1775C26.6802 61.0958 26.8996 61.0295 27.1853 60.9274C27.0782 60.7387 27.0323 60.5397 26.9047 60.4529C26.3128 60.0498 25.6342 59.7488 25.1087 59.2743C24.6954 58.9018 24.3943 58.361 24.1749 57.8405C23.9913 57.3966 24.7668 56.6109 25.5016 56.3864C25.7363 56.3149 25.9659 56.2333 26.3485 56.1057C25.7057 55.7128 25.1954 55.4271 24.7158 55.1006C24.0117 54.6209 23.5576 53.9627 23.4657 53.1055C23.4096 52.6055 23.5627 52.2126 24.0933 51.9626C24.5321 51.7585 24.8944 51.3912 25.2975 51.085C24.8536 50.4472 24.4199 49.789 23.9555 49.1563C23.3586 48.3501 23.1596 47.447 23.2922 46.4827C23.3892 45.7428 24.2158 45.2224 25.073 45.2836C25.2668 45.2989 25.4607 45.3194 25.8077 45.3449C25.2311 44.5234 24.777 43.8244 24.277 43.1611C23.6749 42.36 23.4912 41.4467 23.7974 40.5487C23.9453 40.115 24.5066 39.7935 24.9301 39.4925C25.1801 39.3139 25.5322 39.2731 25.9302 39.1404C25.6036 38.6251 25.272 38.1914 25.0423 37.7117C24.6393 36.875 24.3178 35.982 24.7719 35.0687C25.1597 34.2932 25.874 34.0176 26.721 34.0227C27.0476 34.0227 27.3741 33.9921 27.8027 33.9717C27.5731 33.3747 27.3435 32.8645 27.1853 32.3339C26.9098 31.4103 26.5731 30.4817 26.471 29.5327C26.3996 28.8694 26.6241 28.1499 26.8333 27.4917C26.9098 27.2519 27.3078 27.0529 27.6037 26.9611C28.0833 26.8029 28.3181 26.5529 28.415 26.0376C28.7058 24.4813 29.0222 22.9302 29.4151 21.3995C29.5834 20.7515 29.8896 20.0984 30.2774 19.5525C31.2315 18.2106 31.5938 18.1544 33.1449 18.8841C33.2775 18.282 33.4153 17.7003 33.5276 17.1084C33.9715 14.8379 34.7317 12.6949 35.9155 10.705C36.5226 9.68962 37.1553 9.31715 38.4156 9.23041C39.0483 7.34764 40.1096 5.72509 41.528 4.34236C41.9464 3.93417 42.4414 3.58211 42.9465 3.28107C43.6455 2.85757 44.0588 3.10248 44.5486 4.14336C45.2273 3.40863 45.9059 2.66368 46.5947 1.92894C47.3753 1.09216 48.2427 0.413544 49.4673 0.418646C49.5438 0.418646 49.6204 0.29619 49.702 0.234961C50.2837 -0.193636 50.8092 -0.0252585 50.8756 0.653354C51.0746 2.66878 51.1613 4.66891 50.2582 6.57719C50.0388 7.0466 49.8755 7.54663 49.7224 8.04666C49.6459 8.29158 49.651 8.5671 49.6204 8.82732C49.6765 8.85794 49.7326 8.88855 49.7939 8.91917C50.2429 8.52629 50.6919 8.1283 51.1358 7.73542C52.5593 6.48024 53.9625 5.19955 55.4115 3.97499C56.381 3.15861 57.3453 2.29631 58.4423 1.68913C59.9577 0.852346 61.6109 0.29619 63.412 0.673764C63.5243 0.699276 63.6365 0.740094 63.7437 0.780913C63.7794 0.79622 63.8049 0.847244 63.8457 0.90337C59.9016 6.06185 56.7892 11.6234 55.8759 18.1799C55.7024 19.4249 55.733 20.7005 55.6667 21.9659C55.7534 21.9965 55.8401 22.0322 55.9269 22.0628C56.5698 21.4659 57.2178 20.874 57.8505 20.2719C59.0495 19.1239 60.3812 18.185 61.9783 17.6646C63.5549 17.1544 65.1162 16.5217 66.8204 16.7717C67.8409 16.9197 68.8511 17.1442 70.0604 17.3738C69.0603 18.3738 68.2338 19.18 67.4276 20.0168C64.8611 22.6751 63.1773 25.859 62.0089 29.3286C61.468 30.9358 60.9323 32.5584 60.5802 34.2115C60.2894 35.5892 60.2486 37.0229 60.1312 38.4363C59.8251 42.0998 60.6517 45.6459 61.3354 49.192C61.8762 51.9932 62.5548 54.7791 63.3865 57.5089C63.9631 59.3967 64.8101 61.2132 65.7081 62.9786C66.652 64.8359 67.7388 66.6268 68.8665 68.3769C69.5042 69.3718 70.2798 70.3056 71.1166 71.1475C73.0147 73.0557 74.8719 75.0304 76.9537 76.7243C79.5151 78.8061 82.0713 80.944 85.0256 82.4798C87.4492 83.7452 89.9188 84.9238 92.3679 86.1382C92.4903 86.1994 92.6332 86.2198 92.8934 86.2913C92.8577 85.9953 92.9138 85.6994 92.7914 85.5514C91.6791 84.2146 90.6637 82.7655 89.1585 81.8063C88.485 81.3777 87.8013 80.9491 87.0819 80.6021C86.6175 80.3776 86.5206 80.1939 86.8267 79.7602C88.0819 77.9693 89.5769 76.4233 91.6485 75.6375C93.0516 75.1069 94.5415 74.7854 96.011 74.4538C96.5569 74.3313 97.1488 74.4334 97.7254 74.3415C95.9446 73.6221 94.0619 73.9691 92.2301 73.8415C92.1944 73.7599 92.1587 73.6782 92.1281 73.5915C92.8016 73.1119 93.4496 72.5863 94.1588 72.1679C96.9549 70.5097 100.052 70.3974 103.18 70.5352C104.782 70.6066 106.389 70.9128 107.981 70.8515C109.155 70.8056 110.389 70.5913 111.629 69.8515C109.221 69.6372 107.017 69.4382 104.807 69.2443C106.129 67.9483 107.558 67.0809 109.272 66.6064C110.854 66.1676 112.415 66.0706 114.022 66.2237C114.39 66.2594 114.624 66.1421 114.65 65.6777C114.742 64.0756 114.788 62.4582 115.017 60.8713C115.41 58.162 115.915 55.4628 116.41 52.7688C116.589 51.7942 116.823 50.8197 117.145 49.8809C117.369 49.2175 117.737 48.5951 118.114 48.0032C118.242 47.8042 118.594 47.7532 118.956 47.5848C118.956 47.248 118.936 46.7837 118.961 46.3245C118.997 45.6663 119.002 45.003 119.135 44.3601C119.288 43.5948 119.569 43.4825 120.293 43.7172C121.099 43.9825 121.171 43.8907 121.196 43.0896C121.237 41.8702 121.319 40.6456 121.467 39.4363C121.569 38.6047 122.074 38.3087 122.875 38.4669C123.559 38.6047 123.701 38.4669 123.701 37.7577C123.701 37.0484 123.661 36.3341 123.737 35.6351C123.849 34.6299 124.263 34.3748 125.268 34.5738C125.804 34.6809 125.987 34.5381 125.921 33.9462C125.86 33.3952 125.916 32.8084 126.018 32.2573C126.186 31.3287 126.686 30.997 127.6 31.2113C128.181 31.3491 128.329 31.2165 128.472 30.6042C128.707 29.5837 129.1 28.5836 129.539 27.6295C129.87 26.9101 130.625 26.7519 131.59 27.0631C131.911 26.2723 132.263 25.4814 132.559 24.6701C132.824 23.9303 133.386 23.5119 134.059 23.2772C134.335 23.1802 134.723 23.415 135.121 23.5119C135.503 22.8792 135.922 22.1292 136.396 21.4148C136.733 20.9046 137.09 20.3893 137.534 19.976C138.386 19.1851 139.08 19.3229 139.646 20.3127C139.687 20.3893 139.769 20.4454 139.922 20.6036C140.121 20.078 140.31 19.6392 140.452 19.1851C140.952 17.6391 142.039 16.5931 143.381 15.7869C144.218 15.2818 144.453 15.3634 145.045 16.19C145.407 15.7512 145.749 15.3226 146.111 14.9042C147.381 13.4194 149.137 12.7919 150.928 12.2561C151.55 12.0673 151.882 12.5112 151.683 13.098C151.224 14.4654 150.856 15.8635 150.479 17.2564C150.417 17.486 150.468 17.7462 150.468 18.0728C151.193 17.8789 151.815 17.7513 152.407 17.5472C153.581 17.1442 154.693 17.3585 155.754 17.8738C155.928 17.9554 156.106 18.4453 156.02 18.583C154.183 21.5934 153.433 24.961 152.759 28.354C152.162 31.3389 151.882 34.3544 151.989 37.4617C152.56 36.2576 152.979 34.8952 154.785 35.0585C154.673 35.7269 154.581 36.3494 154.464 36.9668C153.754 40.7527 153.025 44.5387 152.341 48.3297C152.178 49.2329 152.224 50.1768 152.071 51.0799C152.009 51.4524 151.764 51.8861 151.468 52.1055C148.708 54.177 146.172 56.4731 144.029 59.1875C143.356 60.0396 142.56 60.805 141.978 61.7132C141.197 62.9276 140.555 64.2389 139.886 65.5247C139.35 66.5502 138.861 67.6013 138.345 68.6371C137.917 69.5045 138.065 69.8872 138.947 70.2239C141.264 71.1066 143.57 71.9996 145.881 72.8874C146.427 73.0966 146.733 73.4384 146.703 74.0609C146.672 74.6273 146.693 75.1987 146.713 75.7702C146.739 76.556 147.091 77.1172 147.856 77.3978C149.356 77.954 150.851 78.5204 152.351 79.0816C153.867 79.6429 155.382 80.1939 156.892 80.7654C157.668 81.0613 157.724 81.3573 157.025 81.8165C155.984 82.5002 155.561 83.5717 155.407 84.6687C155.249 85.8014 154.907 86.6892 153.953 87.3525C152.448 88.3985 150.979 89.4955 149.361 90.4956C149.53 89.8986 149.662 89.2914 149.882 88.7149C150.101 88.1332 149.912 87.8628 149.356 87.6485C148.183 87.2046 147.035 86.6994 145.876 86.2147C145.08 85.878 144.295 85.5157 143.499 85.1891C140.723 84.0564 136.667 85.929 136.952 89.9956C137.08 91.7865 137.998 92.9498 139.391 93.7866C139.998 94.154 140.84 94.154 141.585 94.2713C143.264 94.5469 144.948 94.7969 146.626 95.0469C147.407 95.1642 147.82 94.9244 148.137 94.1897C148.33 93.7458 148.504 93.2968 148.703 92.8172C149.183 93.3682 149.3 94.5162 148.922 95.1744C148.677 95.603 148.376 96.0112 148.029 96.3582C146.861 97.5266 146.968 98.1797 148.468 98.8022C148.703 98.8992 148.933 99.0012 149.269 99.1492C148.341 99.6798 147.499 100.139 146.682 100.649C146.458 100.792 146.254 101.063 146.167 101.318C145.856 102.231 145.601 103.17 145.284 104.231C145.596 104.282 145.902 104.384 146.203 104.379C147.851 104.333 149.412 104.002 150.953 103.338C152.081 102.853 153.101 102.257 153.974 101.455C154.611 100.869 155.127 100.103 155.561 99.3431C156.469 97.7715 157.188 96.0827 158.168 94.5622C159.096 93.1233 160.398 92.011 162.112 91.5314C164.066 90.9854 165.913 91.062 167.577 92.4294C168.077 92.8427 168.694 93.1131 169.26 93.4499C169.383 93.5213 169.51 93.5825 169.638 93.6539C169.602 93.7305 169.566 93.807 169.536 93.8887C169.327 93.9091 169.102 93.8989 168.903 93.9652C168.643 94.057 168.286 94.154 168.179 94.3632C168.031 94.6438 167.969 95.0316 168.408 95.2663C168.867 95.5163 169.291 95.8275 169.72 96.1337C169.959 96.3072 170.174 96.5164 170.5 96.7919C170.128 96.7919 169.903 96.797 169.679 96.7919C169.271 96.7766 168.873 96.7613 168.995 97.3736C169.005 97.4144 168.975 97.4654 168.959 97.5113C168.694 98.3736 168.827 98.6696 169.643 99.1645C170.051 99.4145 170.434 99.7155 170.862 100.134C169.806 99.8686 169.434 100.42 169.225 101.236C168.949 102.318 170.23 102.226 170.454 102.991C170.225 103.007 169.975 102.986 169.755 103.058C169.526 103.134 169.235 103.257 169.138 103.445C168.781 104.139 168.541 104.889 168.179 105.578C167.189 107.476 165.99 109.206 164.148 110.4C163.719 110.68 163.352 111.048 162.923 111.4C164.765 111.543 168.036 108.486 170.046 104.813C171.016 105.451 171.373 105.313 171.735 104.053C172.204 104.333 172.648 104.593 173.092 104.859C173.281 104.971 173.47 105.088 173.659 105.206C173.812 104.925 173.99 104.655 174.102 104.359C174.154 104.226 174.062 104.042 173.995 103.665C174.358 103.833 174.628 103.92 174.858 104.073C175.128 104.257 175.342 104.522 175.613 104.706C176.108 105.048 176.598 105.211 176.934 104.451C176.797 104.231 176.643 103.981 176.485 103.731C176.567 103.68 176.623 103.629 176.638 103.639C177.664 104.333 178.725 104.986 179.69 105.762C179.95 105.971 180.052 106.578 179.991 106.971C179.414 110.655 177.501 113.512 174.398 115.533C172.796 116.574 171.026 117.206 169.092 117.39C166.719 117.615 164.357 117.951 161.984 118.186C160.311 118.354 158.627 118.37 156.959 118.579C154.683 118.86 152.392 119.135 150.157 119.625C144.927 120.763 139.723 122.033 134.503 123.242C134.299 123.288 134.09 123.304 133.722 123.36C136.84 121.753 139.815 120.217 142.789 118.676C142.749 118.589 142.703 118.502 142.662 118.416C141.789 118.783 140.917 119.14 140.049 119.513C137.503 120.605 134.993 121.788 132.411 122.778C129.008 124.079 125.564 125.268 122.11 126.421C120.609 126.921 119.058 127.289 117.502 127.569C115.563 127.921 113.619 128.279 111.619 128.069C109.971 127.901 109.073 127.253 108.578 125.687C108.425 125.192 108.323 124.676 108.231 124.166C108.144 123.681 108.109 123.191 108.053 122.702C107.976 122.691 107.899 122.681 107.828 122.671C107.69 123.263 107.512 123.855 107.42 124.452C107.328 125.059 107.277 125.676 107.277 126.289C107.277 126.86 107.047 127.217 106.537 127.452C104.43 128.406 102.221 128.998 99.9245 129.233C95.0823 129.733 90.3576 128.865 85.6277 127.983C83.8674 127.651 82.0764 127.462 80.2957 127.253C79.015 127.1 77.7241 127.013 76.2802 126.88C77.9895 124.003 79.9947 121.549 82.6938 119.63C82.3214 119.768 81.9336 119.865 81.5815 120.043C79.5967 121.038 77.9435 122.452 76.3771 124.023C74.9587 125.447 74.1219 127.319 72.6269 128.656C71.5299 129.646 70.3717 130.569 69.2338 131.508C68.642 131.998 68.0297 132.468 67.4276 132.942C67.4582 132.998 67.4888 133.059 67.5194 133.116C68.346 132.804 69.1981 132.544 69.9941 132.167C71.8462 131.279 73.5402 130.166 74.9076 128.6C75.0862 128.396 75.4332 128.182 75.6781 128.207C76.7751 128.314 77.8619 128.508 78.9487 128.666C78.9691 128.738 78.9844 128.809 79.0048 128.881C77.9793 129.661 76.9588 130.447 75.9281 131.217C75.3669 131.636 74.8005 132.059 74.2035 132.417C72.7136 133.304 71.2391 134.228 69.6828 134.988C68.7389 135.447 67.6776 135.713 66.6418 135.922C64.2794 136.396 61.866 136.651 59.5343 137.238C56.8198 137.922 54.7329 139.621 53.2124 141.983C51.7072 144.32 50.2225 146.667 48.7122 149.004C47.8397 150.351 46.9416 151.683 46.0538 153.02C45.3038 154.153 44.2476 154.785 42.8394 154.949C42.8394 154.678 42.8394 154.418 42.8394 154.01C42.6199 154.158 42.4516 154.265 42.2883 154.382C41.6607 154.831 41.0841 155.403 40.3953 155.699C39.9106 155.903 39.2728 155.739 38.6656 155.739C38.8544 155.377 39.0432 155.02 39.283 154.561C38.2727 154.647 37.9258 155.918 36.9614 155.663C35.8899 154.071 37.0176 152.831 37.7217 151.392C37.3492 151.52 37.1604 151.581 36.7727 151.709C36.8339 151.137 36.7727 150.637 36.9614 150.265C37.2778 149.627 37.3951 148.856 38.1656 148.463C38.5381 148.27 38.6962 147.693 39.0534 147.417C39.6759 146.943 40.3545 146.525 41.0484 146.157C42.6097 145.331 44.0078 144.285 45.1711 142.963C45.6303 142.443 45.9059 141.759 46.3396 141.203C46.5539 140.932 46.9008 140.713 47.2376 140.601C49.0234 139.983 50.8245 139.407 52.6206 138.805C52.8196 138.738 52.9981 138.626 53.1716 138.407C52.8502 138.442 52.5236 138.448 52.2124 138.514C48.6407 139.238 45.064 139.932 41.5076 140.728C40.4361 140.968 39.4361 141.514 38.3952 141.907C37.1502 142.376 36.4767 143.468 35.7879 144.463C34.4154 146.453 33.1653 148.53 31.8795 150.576C30.7978 152.29 29.7518 154.025 28.6497 155.729C27.7772 157.081 26.4098 157.597 24.7719 157.852C24.8587 157.423 24.9199 157.102 24.9964 156.724C24.18 157.336 23.481 158.092 22.6187 158.433C21.7717 158.77 20.7564 158.683 19.7002 158.796C19.9553 158.214 20.1237 157.826 20.2921 157.438C20.2461 157.398 20.2002 157.357 20.1543 157.311C19.8277 157.556 19.5267 157.842 19.1746 158.03C18.6236 158.326 18.0419 158.571 17.4602 158.811C17.3735 158.847 17.149 158.75 17.1133 158.668C16.6592 157.52 16.6592 156.403 17.3123 155.306C17.5878 154.841 17.7766 154.326 18.0827 153.653C17.6337 153.755 17.4296 153.8 17.149 153.867C17.3939 152.137 17.5929 150.443 19.042 149.331C20.3635 148.321 21.736 147.351 23.1749 146.519C25.0679 145.422 26.6598 144.009 27.9813 142.3C29.1497 140.789 30.1498 139.147 31.3182 137.636C32.3183 136.35 33.4255 135.146 34.5531 133.968C34.8695 133.636 35.4001 133.437 35.8695 133.345C38.4768 132.83 40.9056 131.901 42.8036 129.998C45.0283 127.773 46.212 125.023 46.4773 121.885C46.5845 120.625 46.5386 120.579 45.2426 120.579C41.6505 120.579 38.6911 122.023 36.1859 124.528C34.0888 126.625 32.7775 129.222 31.4458 131.814C30.4559 133.733 29.0987 135.386 27.3588 136.672C25.5832 137.983 23.5423 138.657 21.3584 138.907C20.0982 139.055 18.9603 139.453 17.8123 140.024C14.9499 141.453 11.9395 141.774 8.87299 140.657C7.76578 140.249 6.69428 139.784 5.55646 139.33ZM54.3299 32.2471C54.2431 32.2471 54.1615 32.2471 54.0747 32.2471C53.988 32.4614 53.8502 32.6655 53.8196 32.89C53.7227 33.5431 53.6819 34.2064 53.6002 34.8646C53.0951 38.7832 53.1461 42.7018 53.5951 46.6256C54.0849 50.9421 55.0136 55.1465 56.7331 59.1518C58.2536 62.6929 60.2792 65.9533 62.6518 68.9688C64.9325 71.8618 67.3919 74.6171 70.2441 76.9846C72.6779 79.0102 75.1168 81.0307 77.5149 83.0972C80.7651 85.8933 83.8521 88.8628 86.5206 92.2253C87.3421 93.2662 87.9442 94.4805 88.7707 95.5163C90.031 97.098 90.8984 98.843 91.3984 100.792C91.4597 101.027 91.5821 101.241 91.6842 101.476C93.169 100.649 93.5006 99.3022 93.5618 97.8787C93.6435 96.0061 92.9189 94.3019 91.8883 92.8376C90.6382 91.0671 89.2708 89.3322 87.689 87.8577C84.9848 85.3371 82.1071 83.0002 79.2548 80.6429C77.6578 79.3214 75.9332 78.1581 74.3311 76.8417C72.5606 75.3875 70.8309 73.8772 69.1573 72.3108C67.7235 70.974 66.351 69.5657 65.0346 68.1167C62.0905 64.8665 59.871 61.1315 58.177 57.1058C57.3147 55.0648 56.5035 52.9627 56.0442 50.8044C55.4013 47.7838 55.0187 44.6969 54.7023 41.615C54.4472 39.1047 54.4421 36.5637 54.3401 34.0381C54.3094 33.4411 54.3299 32.8441 54.3299 32.2471ZM134.437 70.1576C134.498 70.0505 134.554 69.9484 134.615 69.8413C134.228 69.5147 133.799 69.2188 133.472 68.8412C133.207 68.5402 132.886 68.1167 132.916 67.7697C132.967 67.1064 133.161 66.4227 133.457 65.8257C133.927 64.8767 134.447 63.9327 135.08 63.0909C136.274 61.5091 137.437 59.8764 138.84 58.4885C141.575 55.7843 144.473 53.2433 147.279 50.6105C147.55 50.3554 147.754 49.9064 147.785 49.5288C147.866 48.4216 147.856 47.3042 147.861 46.1919C147.881 42.9723 148.091 39.768 148.657 36.5943C148.718 36.2423 148.667 35.8698 148.667 35.3034C148.336 35.533 148.132 35.5994 148.065 35.732C147.83 36.2168 147.514 36.7117 147.458 37.227C147.116 40.2731 146.841 43.3243 146.545 46.3755C146.489 46.947 146.458 47.5185 146.417 48.1205C145.274 47.7073 144.213 48.0491 143.856 48.8706C143.453 49.7941 143.876 50.6513 144.162 51.5391C143.534 50.9115 143.33 49.7176 142.09 50.1105C141.203 50.386 141.029 51.1462 141.07 51.9779C139.82 51.6463 139.146 51.7993 139.034 52.6667C138.937 53.4117 139.264 54.2077 139.396 54.9373C139.422 54.9526 139.35 54.9322 139.32 54.8863C138.753 54.0189 137.963 53.7229 137.238 54.1158C136.539 54.4985 136.381 55.3659 136.835 56.3047C136.973 56.5905 137.09 56.8915 137.294 57.3711C136.36 56.7537 135.651 55.9016 134.636 56.8405C133.58 57.815 134.034 58.8304 134.62 59.9886C134.376 59.8662 134.274 59.8304 134.192 59.7692C133.345 59.1365 132.85 59.0498 132.273 59.4478C131.625 59.8968 131.549 60.3713 131.916 61.4683C131.977 61.6418 131.983 61.8408 132.023 62.1112C131.079 61.5857 130.498 61.6265 129.845 62.1418C128.891 62.8919 129.406 63.698 129.799 64.5144C129.11 64.2338 128.493 64.1879 128.059 64.7746C127.62 65.3665 127.13 65.489 126.477 65.2236C126.283 65.142 126.064 65.1165 125.85 65.1063C124.074 65.0042 122.293 64.9175 120.518 64.8205C120.497 64.943 120.472 65.0706 120.451 65.193C125.579 65.5196 130.319 66.9584 134.437 70.1576ZM69.3818 105.971C68.9991 105.303 68.9787 105.298 68.1062 105.578C67.8817 105.65 67.6419 105.675 67.4123 105.736C66.2847 106.053 65.1315 106.303 64.0396 106.711C62.4273 107.313 60.8711 108.063 59.2587 108.68C56.6769 109.665 55.0442 111.507 54.1615 114.079C53.6104 115.686 53.0645 117.298 52.5032 118.905C52.3705 119.278 52.1869 119.635 52.0287 120.002C52.1103 120.054 52.1971 120.105 52.2787 120.156C52.6563 119.671 53.0849 119.217 53.4114 118.696C54.5033 116.961 55.5187 115.181 56.6514 113.471C57.4117 112.323 58.5648 111.675 59.8251 111.078C61.7895 110.15 63.7845 109.711 65.9479 109.66C67.0296 109.635 68.1368 109.313 69.1777 108.956C70.5706 108.476 71.8666 107.701 73.2749 107.293C76.173 106.446 79.1222 105.757 82.0458 104.991C82.2805 104.93 82.4948 104.782 82.7193 104.675C82.6938 104.588 82.6683 104.502 82.6377 104.415C78.2344 104.935 73.8361 105.451 69.3818 105.971ZM90.0616 101.649C90.1076 101.629 90.1535 101.609 90.1943 101.588C90.1943 101.476 90.2198 101.353 90.1892 101.246C89.5208 98.8124 88.4187 96.547 87.0206 94.4856C85.7297 92.5825 84.1939 90.8323 82.6428 89.123C81.3264 87.674 79.8671 86.3525 78.4181 85.0361C77.4843 84.1891 76.4281 83.4799 75.4689 82.6635C74.7393 82.0461 74.0811 81.3369 73.3667 80.6991C72.1422 79.6072 70.8921 78.5459 69.6675 77.4489C68.9685 76.8213 68.3052 76.1529 67.6266 75.4998C67.5858 75.5406 67.5398 75.5814 67.499 75.6222C67.5858 75.7549 67.6572 75.9029 67.7643 76.0151C69.989 78.3265 72.1983 80.6531 74.4484 82.939C75.5046 84.0105 76.6424 84.9952 77.7241 86.0412C79.4589 87.7199 81.2499 89.3425 82.8775 91.1181C84.199 92.562 85.3726 94.1591 86.4951 95.7663C87.3931 97.047 88.1176 98.4501 88.9238 99.7921C89.3014 100.42 89.6841 101.032 90.0616 101.649ZM143.652 78.0254C143.641 77.9489 143.636 77.8775 143.626 77.8009C142.595 77.403 141.565 77.005 140.534 76.607C138.662 75.8773 136.799 75.1375 134.916 74.4334C134.692 74.3517 134.401 74.4487 134.003 74.464C134.901 75.311 135.677 75.9386 136.325 76.6733C136.952 77.3876 137.432 78.2346 138.014 78.9949C138.391 79.4898 138.866 79.6174 139.514 79.3725C140.672 78.9388 141.871 78.6173 143.055 78.2499C143.259 78.1836 143.453 78.0969 143.652 78.0254Z" fill="#797979"/>
<path d="M119.104 139.769C119.196 139.488 119.247 139.33 119.313 139.131C118.472 138.575 117.619 138.014 116.762 137.453C116.747 137.371 116.737 137.289 116.721 137.202C117.635 136.81 118.523 136.335 119.466 136.054C120.364 135.789 121.344 135.789 122.252 135.554C122.905 135.386 123.528 135.07 124.12 134.733C125.599 133.896 127.059 133.024 128.508 132.136C129.875 131.304 131.232 130.452 132.574 129.58C133.074 129.258 133.513 129.197 134.095 129.411C136.269 130.212 138.463 130.967 140.651 131.723C141.947 132.172 143.254 132.585 144.555 133.024C144.784 133.105 144.994 133.248 145.325 133.422C144.779 133.845 144.325 134.192 143.876 134.539C143.886 134.6 143.897 134.662 143.907 134.723C144.346 134.784 144.784 134.85 145.223 134.906C150.106 135.514 154.989 136.121 159.872 136.728C160.5 136.805 161.137 136.85 161.76 136.973C162.041 137.029 162.336 137.197 162.546 137.391C164.75 139.432 166.923 141.499 169.128 143.535C170.204 144.529 171.342 145.453 172.434 146.438C174.077 147.923 175.699 149.438 177.337 150.928C178.929 152.377 180.552 153.795 182.139 155.25C184.379 157.306 186.603 159.382 188.833 161.449C188.904 161.515 188.996 161.582 189.017 161.663C189.333 162.852 189.654 164.041 189.925 165.24C189.945 165.342 189.624 165.623 189.44 165.648C188.976 165.709 188.496 165.669 188.022 165.669C134.733 165.709 81.4437 165.75 28.1548 165.796C27.6955 165.796 27.2363 165.796 26.6036 165.796C26.8128 165.48 26.8792 165.337 26.9812 165.23C28.5527 163.577 30.1396 161.928 31.7009 160.265C32.0172 159.928 32.3132 159.923 32.7163 160.036C34.6092 160.556 36.5073 161.056 38.4054 161.551C38.584 161.597 38.7881 161.633 38.9615 161.587C40.2779 161.245 41.6199 160.954 42.9006 160.5C44.7935 159.837 46.6355 159.03 48.5131 158.326C49.1152 158.102 49.5285 157.785 49.8755 157.204C50.7582 155.75 51.7684 154.372 52.7277 152.959C53.4318 151.923 54.1359 150.887 54.8299 149.846C56.4575 147.387 58.0341 144.892 60.2639 142.907C60.4578 142.733 60.7537 142.606 61.0088 142.596C64.4121 142.432 67.8204 142.274 71.2237 142.152C71.984 142.126 72.484 141.8 72.9381 141.213C73.3361 140.703 73.8973 140.32 74.3413 139.835C74.9127 139.213 75.4434 138.555 75.9893 137.907C76.7292 137.034 76.7241 137.034 77.571 137.82C79.2956 139.427 81.0304 141.034 82.755 142.647C84.6225 144.387 86.4849 146.132 88.3472 147.877C88.9646 148.453 89.1432 148.417 89.7044 147.8C90.8627 146.519 92.0566 145.269 93.2506 144.014C94.0976 143.121 95.0109 142.29 95.7915 141.346C96.3018 140.728 96.7814 140.682 97.4396 140.978C99.4703 141.881 101.506 142.759 103.537 143.657C103.92 143.825 104.261 144.131 104.654 144.223C104.971 144.295 105.461 144.259 105.675 144.06C106.746 143.065 107.772 142.014 108.777 140.948C109.741 139.932 110.66 138.876 111.599 137.84C112.313 137.055 112.4 137.039 113.415 137.453C115.293 138.218 117.176 138.983 119.104 139.769Z" fill="#797979"/>
<path d="M4.08705 201.329V189.354H6.10352e-05V185.537H12.4702V189.354H8.38323V201.329H4.08705Z" fill="#797979"/>
<path d="M21.9197 201.329L20.7309 198.222H15.8785L14.858 201.329H10.2404L16.2459 185.537H20.6186L26.7108 201.329H21.9197ZM19.5879 194.604L18.3532 191.043L17.149 194.604H19.5879Z" fill="#797979"/>
<path d="M37.8748 201.329C37.8748 201.329 31.0019 192.374 30.9815 192.344C30.9815 192.359 30.9815 201.329 30.9815 201.329H26.8384V185.537H30.9509C30.9509 185.537 37.6401 194.334 37.6605 194.359C37.6605 194.339 37.6605 185.537 37.6605 185.537H41.8036V201.329H37.8748Z" fill="#797979"/>
<path d="M59.6721 201.329V195.211H54.483V201.329H50.197V185.537H54.483V191.405H59.6721V185.537H63.9581V201.329H59.6721Z" fill="#797979"/>
<path d="M73.8209 201.717C72.8667 201.717 71.9177 201.553 71.0044 201.227C70.0911 200.905 69.2441 200.431 68.4838 199.829C67.4991 199.043 66.7337 198.089 66.2082 196.997C65.6826 195.905 65.4173 194.711 65.4173 193.456C65.4173 192.328 65.6265 191.257 66.0398 190.267C66.4531 189.277 67.0705 188.379 67.8715 187.609C68.6522 186.848 69.5757 186.251 70.6115 185.828C71.6473 185.409 72.7239 185.195 73.8209 185.195C74.9128 185.195 75.9843 185.409 77.0149 185.828C78.0405 186.246 78.964 186.843 79.7498 187.609C80.5458 188.379 81.1581 189.277 81.5713 190.272C81.9846 191.267 82.1938 192.333 82.1938 193.456C82.1938 194.573 81.9795 195.645 81.5662 196.645C81.1478 197.645 80.5356 198.538 79.7498 199.298C78.9385 200.074 78.015 200.676 76.9945 201.089C75.9792 201.507 74.9128 201.717 73.8209 201.717ZM73.8209 189.124C72.6524 189.124 71.7136 189.527 70.9482 190.354C70.1727 191.196 69.7951 192.211 69.7951 193.466C69.7951 194.737 70.1676 195.757 70.9278 196.573C71.6779 197.38 72.6269 197.772 73.8209 197.772C74.9893 197.772 75.923 197.375 76.6782 196.563C77.4435 195.737 77.816 194.721 77.816 193.461C77.816 192.216 77.4384 191.201 76.6578 190.354C75.8975 189.527 74.9689 189.124 73.8209 189.124Z" fill="#797979"/>
<path d="M92.9955 201.329L91.8067 198.222H86.9543L85.9339 201.329H81.3162L87.3217 185.537H91.6944L97.7866 201.329H92.9955ZM90.6586 194.604L89.4239 191.043L88.2197 194.604H90.6586Z" fill="#797979"/>
<path d="M108.951 201.329C108.951 201.329 102.078 192.374 102.057 192.344C102.057 192.359 102.057 201.329 102.057 201.329H97.9142V185.537H102.027C102.027 185.537 108.716 194.334 108.736 194.359C108.736 194.339 108.736 185.537 108.736 185.537H112.879V201.329H108.951Z" fill="#797979"/>
<path d="M122.788 201.717C120.37 201.717 118.344 200.931 116.767 199.375C115.186 197.818 114.385 195.823 114.385 193.441C114.385 191.078 115.191 189.093 116.778 187.537C118.364 185.986 120.385 185.205 122.788 185.205C124.069 185.205 125.258 185.481 126.329 186.017C127.396 186.552 128.355 187.359 129.181 188.415L129.549 188.884L126.513 191.129L126.166 190.696C125.697 190.109 125.202 189.685 124.696 189.435C124.202 189.185 123.61 189.063 122.946 189.063C121.65 189.063 120.655 189.446 119.895 190.236C119.13 191.032 118.757 192.078 118.757 193.446C118.757 194.783 119.13 195.823 119.9 196.63C120.666 197.426 121.64 197.813 122.885 197.813C123.778 197.813 124.503 197.609 125.033 197.206C125.411 196.92 125.63 196.594 125.722 196.191H122.247V192.456H129.988L130.064 192.946C130.079 193.053 130.09 193.17 130.095 193.293C130.1 193.395 130.1 193.558 130.1 193.772C130.1 196.104 129.416 198.028 128.069 199.492C126.712 200.967 124.931 201.717 122.788 201.717Z" fill="#797979"/>
<path d="M150.963 201.329L149.902 192.604L147.014 201.329H144.417L141.555 192.548L140.504 201.329H136.345L138.753 185.537H142.948L145.723 194.027L148.56 185.537H152.698L155.117 201.329H150.963Z" fill="#797979"/>
<path d="M160.239 185.537H155.953V201.329H160.239V185.537Z" fill="#797979"/>
<path d="M173.455 201.329C173.455 201.329 166.582 192.374 166.561 192.344C166.561 192.359 166.561 201.329 166.561 201.329H162.418V185.537H166.531C166.531 185.537 173.22 194.334 173.24 194.359C173.24 194.339 173.24 185.537 173.24 185.537H177.383V201.329H173.455Z" fill="#797979"/>
<path d="M188.966 201.329V195.211H183.777V201.329H179.491V185.537H183.777V191.405H188.966V185.537H193.252V201.329H188.966Z" fill="#797979"/>
<path d="M69.7799 226.279C67.3613 226.279 65.3357 225.494 63.7591 223.937C62.1774 222.381 61.3763 220.386 61.3763 218.003C61.3763 215.641 62.1825 213.656 63.7693 212.1C65.351 210.549 67.3766 209.768 69.7799 209.768C71.0605 209.768 72.2494 210.044 73.3209 210.579C74.3873 211.115 75.3465 211.921 76.1731 212.978L76.5405 213.447L73.5046 215.692L73.1576 215.258C72.6882 214.672 72.1933 214.248 71.6881 213.998C71.1932 213.748 70.6013 213.626 69.938 213.626C68.642 213.626 67.6471 214.008 66.8868 214.799C66.1215 215.595 65.749 216.646 65.749 218.008C65.749 219.345 66.1215 220.386 66.8919 221.192C67.6573 221.988 68.6318 222.376 69.8768 222.376C70.7697 222.376 71.4942 222.172 72.0249 221.769C72.4025 221.483 72.6219 221.157 72.7137 220.754H69.239V217.019H76.9793L77.0558 217.508C77.0711 217.616 77.0813 217.733 77.0864 217.855C77.0915 217.957 77.0915 218.121 77.0915 218.335C77.0915 220.667 76.4078 222.59 75.0608 224.055C73.7036 225.529 71.9228 226.279 69.7799 226.279Z" fill="#797979"/>
<path d="M85.6328 225.892L82.6989 220.682V225.892H78.413V210.1H83.4694C85.3726 210.1 86.837 210.488 87.8217 211.258C88.8524 212.059 89.3728 213.258 89.3728 214.83C89.3728 215.973 89.0208 216.967 88.3268 217.784C87.8115 218.386 87.1839 218.809 86.4492 219.049L90.6025 225.897H85.6328V225.892ZM82.704 216.335C84.1735 216.325 84.6429 216.115 84.7807 216.018C84.8674 215.957 85.1379 215.774 85.1379 215.054C85.1379 214.279 84.8317 214.064 84.7297 213.993C84.546 213.865 84.0409 213.651 82.704 213.641V216.335Z" fill="#797979"/>
<path d="M98.5826 226.279C97.6285 226.279 96.6794 226.116 95.7661 225.79C94.8528 225.468 94.0058 224.994 93.2455 224.391C92.2608 223.606 91.4954 222.652 90.9699 221.56C90.4443 220.468 90.179 219.274 90.179 218.019C90.179 216.891 90.3882 215.82 90.8015 214.83C91.2148 213.84 91.8322 212.942 92.6332 212.171C93.4139 211.411 94.3374 210.814 95.3732 210.391C96.409 209.972 97.4856 209.758 98.5826 209.758C99.6745 209.758 100.746 209.972 101.777 210.391C102.802 210.809 103.726 211.406 104.512 212.171C105.307 212.942 105.92 213.84 106.333 214.835C106.746 215.83 106.956 216.896 106.956 218.019C106.956 219.136 106.741 220.208 106.328 221.208C105.91 222.208 105.297 223.101 104.512 223.861C103.7 224.636 102.777 225.238 101.756 225.652C100.741 226.07 99.6745 226.279 98.5826 226.279ZM98.5826 213.687C97.4142 213.687 96.4753 214.09 95.71 214.916C94.9344 215.758 94.5568 216.774 94.5568 218.029C94.5568 219.299 94.9293 220.32 95.6896 221.136C96.4396 221.942 97.3886 222.335 98.5826 222.335C99.751 222.335 100.685 221.937 101.44 221.126C102.205 220.299 102.578 219.284 102.578 218.024C102.578 216.779 102.2 215.763 101.419 214.916C100.664 214.09 99.7306 213.687 98.5826 213.687Z" fill="#797979"/>
<path d="M115.308 226.279C113.027 226.279 111.288 225.733 110.134 224.657C108.971 223.57 108.384 221.927 108.384 219.784V210.1H112.65V219.294C112.65 220.35 112.869 221.141 113.308 221.636C113.732 222.116 114.369 222.35 115.262 222.35C116.165 222.35 116.813 222.111 117.247 221.626C117.696 221.126 117.921 220.34 117.921 219.294V210.1H122.186V219.784C122.186 221.927 121.594 223.565 120.436 224.652C119.278 225.733 117.553 226.279 115.308 226.279Z" fill="#797979"/>
<path d="M124.263 225.892V210.1H129.789C131.835 210.1 133.564 210.513 134.585 211.324C135.641 212.171 136.177 213.462 136.177 215.177C136.177 216.763 135.646 218.034 134.595 218.952C133.569 219.85 132.222 220.304 130.457 220.304H128.569V225.892H124.263ZM128.569 216.677H129.982C131.58 216.677 132.034 216.024 132.034 215.054C132.034 214.125 131.508 213.595 130.023 213.595H128.574V216.677H128.569Z" fill="#797979"/>
</svg>
