<svg width="194" height="227" viewBox="0 0 194 227" fill="none" xmlns="http://www.w3.org/2000/svg">
<path d="M5.55646 139.531C6.21466 137.868 6.75551 136.388 8.0362 135.317C8.32704 135.072 8.40357 134.577 8.69441 134.337C9.37302 133.771 10.118 133.276 10.8476 132.766C11.1333 132.561 11.4446 132.398 11.7354 132.204C12.2916 131.827 12.7763 131.975 13.1947 132.413C13.8682 133.113 14.5009 133.852 15.1744 134.546C15.8632 135.255 16.5316 135.995 17.2919 136.618C18.6695 137.745 20.2512 137.735 21.8585 137.189C23.8688 136.511 25.3281 135.128 26.6088 133.495C28.3334 131.291 29.4763 128.791 30.4764 126.204C31.7366 122.949 33.8694 120.367 36.6451 118.316C38.6044 116.867 40.778 115.744 43.0996 115.04C45.0946 114.438 47.1712 114.111 49.2071 113.642C49.4265 113.591 49.6714 113.402 49.7837 113.208C50.5235 111.922 51.1103 110.524 51.993 109.351C52.7175 108.392 53.7125 107.591 54.7125 106.897C56.5749 105.59 58.7383 105.101 60.9782 104.917C61.0394 104.912 61.1007 104.866 61.366 104.743C60.6262 104.422 60.0139 104.197 59.4373 103.902C57.8097 103.065 56.1616 102.253 54.585 101.33C52.3348 100.008 50.0898 98.6614 47.9315 97.1868C46.559 96.248 45.3344 95.0847 44.0741 93.9877C43.0077 93.059 41.8852 92.1712 40.9566 91.1201C38.8595 88.7526 36.8441 86.3137 34.844 83.8697C34.1858 83.0635 33.6449 82.1553 33.1041 81.2624C32.4816 80.2368 32.604 79.5072 33.4459 78.6398C33.5327 78.5479 33.5837 78.4204 33.6143 78.3694C32.7418 77.9663 31.8897 77.604 31.0682 77.1907C29.961 76.6396 29.8539 75.3386 30.8335 74.6038C30.9458 74.5222 31.0478 74.4252 31.2468 74.262C31.0019 74.0936 30.8029 73.9558 30.609 73.818C29.8335 73.2619 29.0324 72.7364 28.2925 72.1343C27.8639 71.7822 28.0629 70.9148 28.6038 70.6495C29.0171 70.4454 29.4712 70.3382 30.0222 70.1495C29.7977 69.9811 29.6651 69.8586 29.5171 69.7821C28.8385 69.43 28.1599 69.078 27.466 68.7412C26.8588 68.4504 26.4608 68.0065 26.5373 67.3074C26.6241 66.5064 27.1445 66.0115 27.8742 65.7155C28.0782 65.6339 28.2823 65.5522 28.6599 65.3992C28.0578 65.0675 27.5731 64.8685 27.1649 64.5675C26.5271 64.0981 25.874 63.6185 25.3485 63.0368C24.9352 62.5827 25.1699 61.9653 25.7363 61.6693C25.9659 61.552 26.2159 61.4653 26.4608 61.3785C26.6802 61.2969 26.8996 61.2305 27.1853 61.1285C27.0782 60.9397 27.0323 60.7407 26.9047 60.654C26.3128 60.2509 25.6342 59.9499 25.1087 59.4753C24.6954 59.1029 24.3943 58.562 24.1749 58.0416C23.9913 57.5977 24.7668 56.8119 25.5016 56.5874C25.7363 56.516 25.9659 56.4343 26.3485 56.3068C25.7057 55.9139 25.1954 55.6282 24.7158 55.3016C24.0117 54.822 23.5576 54.1638 23.4657 53.3066C23.4096 52.8066 23.5627 52.4137 24.0933 52.1637C24.5321 51.9596 24.8944 51.5922 25.2975 51.2861C24.8536 50.6483 24.4199 49.9901 23.9555 49.3574C23.3586 48.5512 23.1596 47.6481 23.2922 46.6837C23.3892 45.9439 24.2158 45.4235 25.073 45.4847C25.2668 45.5 25.4607 45.5204 25.8077 45.5459C25.2311 44.7244 24.777 44.0254 24.277 43.3621C23.6749 42.561 23.4912 41.6477 23.7974 40.7497C23.9453 40.316 24.5066 39.9946 24.9301 39.6935C25.1801 39.5149 25.5322 39.4741 25.9302 39.3415C25.6036 38.8261 25.272 38.3924 25.0423 37.9128C24.6393 37.076 24.3178 36.1831 24.7719 35.2698C25.1597 34.4942 25.874 34.2187 26.721 34.2238C27.0476 34.2238 27.3741 34.1932 27.8027 34.1728C27.5731 33.5758 27.3435 33.0656 27.1853 32.5349C26.9098 31.6114 26.5731 30.6828 26.471 29.7337C26.3996 29.0704 26.6241 28.351 26.8333 27.6928C26.9098 27.453 27.3078 27.254 27.6037 27.1621C28.0833 27.004 28.3181 26.754 28.415 26.2386C28.7058 24.6824 29.0222 23.1313 29.4151 21.6006C29.5834 20.9526 29.8896 20.2995 30.2774 19.7535C31.2315 18.4116 31.5938 18.3555 33.1449 19.0851C33.2775 18.483 33.4153 17.9014 33.5276 17.3095C33.9715 15.0389 34.7317 12.896 35.9155 10.906C36.5226 9.89067 37.1553 9.5182 38.4156 9.43146C39.0483 7.54869 40.1096 5.92614 41.528 4.54341C41.9464 4.13522 42.4414 3.78315 42.9465 3.48212C43.6455 3.05862 44.0588 3.30353 44.5486 4.34441C45.2273 3.60968 45.9059 2.86473 46.5947 2.12999C47.3753 1.29321 48.2427 0.614594 49.4673 0.619696C49.5438 0.619696 49.6204 0.49724 49.702 0.436011C50.2837 0.00741366 50.8092 0.175791 50.8756 0.854404C51.0746 2.86983 51.1613 4.86996 50.2582 6.77824C50.0388 7.24765 49.8755 7.74768 49.7224 8.24771C49.6459 8.49263 49.651 8.76815 49.6204 9.02837C49.6765 9.05899 49.7326 9.0896 49.7939 9.12022C50.2429 8.72733 50.6919 8.32935 51.1358 7.93647C52.5593 6.68129 53.9625 5.4006 55.4115 4.17604C56.381 3.35966 57.3453 2.49736 58.4423 1.89018C59.9577 1.0534 61.6109 0.49724 63.412 0.874814C63.5243 0.900325 63.6365 0.941144 63.7437 0.981963C63.7794 0.99727 63.8049 1.04829 63.8457 1.10442C59.9016 6.2629 56.7892 11.8245 55.8759 18.381C55.7024 19.626 55.733 20.9016 55.6667 22.1669C55.7534 22.1975 55.8401 22.2333 55.9269 22.2639C56.5698 21.6669 57.2178 21.075 57.8505 20.473C59.0495 19.3249 60.3812 18.3861 61.9783 17.8657C63.5549 17.3554 65.1162 16.7227 66.8204 16.9727C67.8409 17.1207 68.8511 17.3452 70.0604 17.5748C69.0603 18.5749 68.2338 19.3811 67.4276 20.2178C64.8611 22.8762 63.1773 26.06 62.0089 29.5296C61.468 31.1369 60.9323 32.7594 60.5802 34.4126C60.2894 35.7902 60.2486 37.224 60.1312 38.6373C59.8251 42.3008 60.6517 45.847 61.3354 49.3931C61.8762 52.1943 62.5548 54.9802 63.3865 57.7099C63.9631 59.5978 64.8101 61.4142 65.7081 63.1796C66.652 65.0369 67.7388 66.8278 68.8665 68.5779C69.5042 69.5729 70.2798 70.5066 71.1166 71.3485C73.0147 73.2568 74.8719 75.2314 76.9537 76.9254C79.5151 79.0071 82.0713 81.145 85.0256 82.6808C87.4492 83.9462 89.9188 85.1249 92.3679 86.3392C92.4903 86.4005 92.6332 86.4209 92.8934 86.4923C92.8577 86.1964 92.9138 85.9004 92.7914 85.7524C91.6791 84.4156 90.6637 82.9666 89.1585 82.0073C88.485 81.5787 87.8013 81.1501 87.0819 80.8032C86.6175 80.5787 86.5206 80.395 86.8267 79.9613C88.0819 78.1704 89.5769 76.6243 91.6485 75.8386C93.0516 75.3079 94.5415 74.9865 96.011 74.6548C96.5569 74.5324 97.1488 74.6344 97.7254 74.5426C95.9446 73.8232 94.0619 74.1701 92.2301 74.0426C92.1944 73.9609 92.1587 73.8793 92.1281 73.7925C92.8016 73.3129 93.4496 72.7874 94.1588 72.369C96.9549 70.7107 100.052 70.5985 103.18 70.7362C104.782 70.8077 106.389 71.1138 107.981 71.0526C109.155 71.0067 110.389 70.7924 111.629 70.0525C109.221 69.8382 107.017 69.6392 104.807 69.4453C106.129 68.1493 107.558 67.2819 109.272 66.8074C110.854 66.3686 112.415 66.2717 114.022 66.4247C114.39 66.4605 114.624 66.3431 114.65 65.8788C114.742 64.2766 114.788 62.6592 115.017 61.0724C115.41 58.363 115.915 55.6639 116.41 52.9698C116.589 51.9953 116.823 51.0207 117.145 50.0819C117.369 49.4186 117.737 48.7961 118.114 48.2042C118.242 48.0052 118.594 47.9542 118.956 47.7858C118.956 47.4491 118.936 46.9848 118.961 46.5256C118.997 45.8674 119.002 45.2041 119.135 44.5612C119.288 43.7958 119.569 43.6836 120.293 43.9183C121.099 44.1836 121.171 44.0917 121.196 43.2907C121.237 42.0712 121.319 40.8466 121.467 39.6374C121.569 38.8057 122.074 38.5098 122.875 38.6679C123.559 38.8057 123.701 38.6679 123.701 37.9587C123.701 37.2495 123.661 36.5352 123.737 35.8361C123.849 34.831 124.263 34.5759 125.268 34.7748C125.804 34.882 125.987 34.7391 125.921 34.1473C125.86 33.5962 125.916 33.0094 126.018 32.4584C126.186 31.5298 126.686 31.1981 127.6 31.4124C128.181 31.5502 128.329 31.4175 128.472 30.8052C128.707 29.7847 129.1 28.7847 129.539 27.8305C129.87 27.1111 130.625 26.9529 131.59 27.2642C131.911 26.4733 132.263 25.6825 132.559 24.8712C132.824 24.1313 133.386 23.7129 134.059 23.4782C134.335 23.3813 134.723 23.616 135.121 23.7129C135.503 23.0803 135.922 22.3302 136.396 21.6159C136.733 21.1056 137.09 20.5903 137.534 20.177C138.386 19.3862 139.08 19.5239 139.646 20.5138C139.687 20.5903 139.769 20.6464 139.922 20.8046C140.121 20.2791 140.31 19.8403 140.452 19.3862C140.952 17.8401 142.039 16.7942 143.381 15.988C144.218 15.4829 144.453 15.5645 145.045 16.3911C145.407 15.9523 145.749 15.5237 146.111 15.1053C147.381 13.6205 149.137 12.9929 150.928 12.4572C151.55 12.2684 151.882 12.7123 151.683 13.299C151.224 14.6665 150.856 16.0645 150.479 17.4575C150.417 17.6871 150.468 17.9473 150.468 18.2738C151.193 18.0799 151.815 17.9524 152.407 17.7483C153.581 17.3452 154.693 17.5595 155.754 18.0748C155.928 18.1565 156.106 18.6463 156.02 18.7841C154.183 21.7945 153.433 25.162 152.759 28.5551C152.162 31.54 151.882 34.5554 151.989 37.6628C152.56 36.4586 152.979 35.0963 154.785 35.2596C154.673 35.928 154.581 36.5505 154.464 37.1679C153.754 40.9538 153.025 44.7397 152.341 48.5308C152.178 49.4339 152.224 50.3778 152.071 51.281C152.009 51.6534 151.764 52.0871 151.468 52.3065C148.708 54.3781 146.172 56.6741 144.029 59.3886C143.356 60.2407 142.56 61.006 141.978 61.9143C141.197 63.1286 140.555 64.4399 139.886 65.7257C139.35 66.7513 138.861 67.8024 138.345 68.8382C137.917 69.7056 138.065 70.0882 138.947 70.425C141.264 71.3077 143.57 72.2006 145.881 73.0884C146.427 73.2976 146.733 73.6395 146.703 74.262C146.672 74.8283 146.693 75.3998 146.713 75.9712C146.739 76.757 147.091 77.3183 147.856 77.5989C149.356 78.1551 150.851 78.7214 152.351 79.2827C153.867 79.8439 155.382 80.395 156.892 80.9665C157.668 81.2624 157.724 81.5583 157.025 82.0175C155.984 82.7012 155.561 83.7727 155.407 84.8698C155.249 86.0025 154.907 86.8903 153.953 87.5536C152.448 88.5996 150.979 89.6966 149.361 90.6966C149.53 90.0997 149.662 89.4925 149.882 88.9159C150.101 88.3343 149.912 88.0638 149.356 87.8495C148.183 87.4056 147.035 86.9005 145.876 86.4158C145.08 86.079 144.295 85.7167 143.499 85.3902C140.723 84.2575 136.667 86.13 136.952 90.1966C137.08 91.9875 137.998 93.1509 139.391 93.9877C139.998 94.355 140.84 94.355 141.585 94.4724C143.264 94.7479 144.948 94.9979 146.626 95.2479C147.407 95.3653 147.82 95.1255 148.137 94.3907C148.33 93.9468 148.504 93.4978 148.703 93.0182C149.183 93.5693 149.3 94.7173 148.922 95.3755C148.677 95.8041 148.376 96.2123 148.029 96.5592C146.861 97.7277 146.968 98.3808 148.468 99.0033C148.703 99.1002 148.933 99.2023 149.269 99.3502C148.341 99.8809 147.499 100.34 146.682 100.85C146.458 100.993 146.254 101.264 146.167 101.519C145.856 102.432 145.601 103.371 145.284 104.432C145.596 104.483 145.902 104.585 146.203 104.58C147.851 104.534 149.412 104.203 150.953 103.539C152.081 103.055 153.101 102.458 153.974 101.656C154.611 101.07 155.127 100.304 155.561 99.5441C156.469 97.9726 157.188 96.2837 158.168 94.7632C159.096 93.3243 160.398 92.212 162.112 91.7324C164.066 91.1865 165.913 91.263 167.577 92.6304C168.077 93.0437 168.694 93.3141 169.26 93.6509C169.383 93.7223 169.51 93.7836 169.638 93.855C169.602 93.9315 169.566 94.0081 169.536 94.0897C169.327 94.1101 169.102 94.0999 168.903 94.1662C168.643 94.2581 168.286 94.355 168.179 94.5642C168.031 94.8448 167.969 95.2326 168.408 95.4673C168.867 95.7174 169.291 96.0286 169.72 96.3347C169.959 96.5082 170.174 96.7174 170.5 96.9929C170.128 96.9929 169.903 96.998 169.679 96.9929C169.271 96.9776 168.873 96.9623 168.995 97.5746C169.005 97.6154 168.975 97.6665 168.959 97.7124C168.694 98.5747 168.827 98.8706 169.643 99.3655C170.051 99.6155 170.434 99.9166 170.862 100.335C169.806 100.07 169.434 100.621 169.225 101.437C168.949 102.519 170.23 102.427 170.454 103.192C170.225 103.208 169.975 103.187 169.755 103.259C169.526 103.335 169.235 103.458 169.138 103.646C168.781 104.34 168.541 105.09 168.179 105.779C167.189 107.677 165.99 109.407 164.148 110.601C163.719 110.882 163.352 111.249 162.923 111.601C164.765 111.744 168.036 108.688 170.046 105.014C171.016 105.652 171.373 105.514 171.735 104.254C172.204 104.534 172.648 104.794 173.092 105.06C173.281 105.172 173.47 105.289 173.659 105.407C173.812 105.126 173.99 104.856 174.102 104.56C174.154 104.427 174.062 104.243 173.995 103.866C174.358 104.034 174.628 104.121 174.858 104.274C175.128 104.458 175.342 104.723 175.613 104.907C176.108 105.249 176.598 105.412 176.934 104.652C176.797 104.432 176.643 104.182 176.485 103.932C176.567 103.881 176.623 103.83 176.638 103.84C177.664 104.534 178.725 105.187 179.69 105.963C179.95 106.172 180.052 106.779 179.991 107.172C179.414 110.856 177.501 113.713 174.398 115.734C172.796 116.775 171.026 117.407 169.092 117.591C166.719 117.816 164.357 118.152 161.984 118.387C160.311 118.555 158.627 118.571 156.959 118.78C154.683 119.061 152.392 119.336 150.157 119.826C144.927 120.964 139.723 122.234 134.503 123.444C134.299 123.489 134.09 123.505 133.722 123.561C136.84 121.954 139.815 120.418 142.789 118.877C142.749 118.79 142.703 118.703 142.662 118.617C141.789 118.984 140.917 119.341 140.049 119.714C137.503 120.806 134.993 121.989 132.411 122.979C129.008 124.28 125.564 125.469 122.11 126.622C120.609 127.122 119.058 127.49 117.502 127.77C115.563 128.122 113.619 128.48 111.619 128.27C109.971 128.102 109.073 127.454 108.578 125.888C108.425 125.393 108.323 124.877 108.231 124.367C108.144 123.882 108.109 123.393 108.053 122.903C107.976 122.892 107.899 122.882 107.828 122.872C107.69 123.464 107.512 124.056 107.42 124.653C107.328 125.26 107.277 125.877 107.277 126.49C107.277 127.061 107.047 127.418 106.537 127.653C104.43 128.607 102.221 129.199 99.9245 129.434C95.0823 129.934 90.3576 129.066 85.6277 128.184C83.8674 127.852 82.0764 127.663 80.2957 127.454C79.015 127.301 77.7241 127.214 76.2802 127.082C77.9895 124.204 79.9947 121.75 82.6938 119.831C82.3214 119.969 81.9336 120.066 81.5815 120.244C79.5967 121.239 77.9435 122.653 76.3771 124.224C74.9587 125.648 74.1219 127.52 72.6269 128.857C71.5299 129.847 70.3717 130.771 69.2338 131.709C68.642 132.199 68.0297 132.669 67.4276 133.143C67.4582 133.199 67.4888 133.26 67.5194 133.317C68.346 133.005 69.1981 132.745 69.9941 132.368C71.8462 131.48 73.5402 130.367 74.9076 128.801C75.0862 128.597 75.4332 128.383 75.6781 128.408C76.7751 128.515 77.8619 128.709 78.9487 128.867C78.9691 128.939 78.9844 129.01 79.0048 129.082C77.9793 129.862 76.9588 130.648 75.9281 131.419C75.3669 131.837 74.8005 132.26 74.2035 132.618C72.7136 133.505 71.2391 134.429 69.6828 135.189C68.7389 135.648 67.6776 135.914 66.6418 136.123C64.2794 136.597 61.866 136.853 59.5343 137.439C56.8198 138.123 54.7329 139.822 53.2124 142.184C51.7072 144.521 50.2225 146.868 48.7122 149.205C47.8397 150.552 46.9416 151.884 46.0538 153.221C45.3038 154.354 44.2476 154.986 42.8394 155.15C42.8394 154.879 42.8394 154.619 42.8394 154.211C42.6199 154.359 42.4516 154.466 42.2883 154.583C41.6607 155.032 41.0841 155.604 40.3953 155.9C39.9106 156.104 39.2728 155.94 38.6656 155.94C38.8544 155.578 39.0432 155.221 39.283 154.762C38.2727 154.849 37.9258 156.119 36.9614 155.864C35.8899 154.272 37.0176 153.032 37.7217 151.593C37.3492 151.721 37.1604 151.782 36.7727 151.91C36.8339 151.338 36.7727 150.838 36.9614 150.466C37.2778 149.828 37.3951 149.057 38.1656 148.664C38.5381 148.471 38.6962 147.894 39.0534 147.618C39.6759 147.144 40.3545 146.726 41.0484 146.358C42.6097 145.532 44.0078 144.486 45.1711 143.164C45.6303 142.644 45.9059 141.96 46.3396 141.404C46.5539 141.133 46.9008 140.914 47.2376 140.802C49.0234 140.184 50.8245 139.608 52.6206 139.006C52.8196 138.939 52.9981 138.827 53.1716 138.608C52.8502 138.643 52.5236 138.649 52.2124 138.715C48.6407 139.439 45.064 140.133 41.5076 140.929C40.4361 141.169 39.4361 141.715 38.3952 142.108C37.1502 142.577 36.4767 143.669 35.7879 144.664C34.4154 146.654 33.1653 148.731 31.8795 150.777C30.7978 152.491 29.7518 154.226 28.6497 155.93C27.7772 157.282 26.4098 157.798 24.7719 158.053C24.8587 157.624 24.9199 157.303 24.9964 156.925C24.18 157.537 23.481 158.293 22.6187 158.634C21.7717 158.971 20.7564 158.884 19.7002 158.997C19.9553 158.415 20.1237 158.027 20.2921 157.64C20.2461 157.599 20.2002 157.558 20.1543 157.512C19.8277 157.757 19.5267 158.043 19.1746 158.231C18.6236 158.527 18.0419 158.772 17.4602 159.012C17.3735 159.048 17.149 158.951 17.1133 158.869C16.6592 157.721 16.6592 156.604 17.3123 155.507C17.5878 155.042 17.7766 154.527 18.0827 153.854C17.6337 153.956 17.4296 154.002 17.149 154.068C17.3939 152.338 17.5929 150.644 19.042 149.532C20.3635 148.522 21.736 147.552 23.1749 146.72C25.0679 145.623 26.6598 144.21 27.9813 142.501C29.1497 140.991 30.1498 139.348 31.3182 137.837C32.3183 136.551 33.4255 135.347 34.5531 134.169C34.8695 133.837 35.4001 133.638 35.8695 133.546C38.4768 133.031 40.9056 132.102 42.8036 130.199C45.0283 127.974 46.212 125.224 46.4773 122.086C46.5845 120.826 46.5386 120.78 45.2426 120.78C41.6505 120.78 38.6911 122.224 36.1859 124.729C34.0888 126.826 32.7775 129.424 31.4458 132.016C30.4559 133.934 29.0987 135.587 27.3588 136.873C25.5832 138.184 23.5423 138.858 21.3584 139.108C20.0982 139.256 18.9603 139.654 17.8123 140.225C14.9499 141.654 11.9395 141.975 8.87299 140.858C7.76578 140.45 6.69428 139.985 5.55646 139.531ZM54.3299 32.4482C54.2431 32.4482 54.1615 32.4482 54.0747 32.4482C53.988 32.6625 53.8502 32.8666 53.8196 33.0911C53.7227 33.7442 53.6819 34.4075 53.6002 35.0657C53.0951 38.9843 53.1461 42.9029 53.5951 46.8266C54.0849 51.1432 55.0136 55.3475 56.7331 59.3529C58.2536 62.8939 60.2792 66.1543 62.6518 69.1698C64.9325 72.0628 67.3919 74.8181 70.2441 77.1856C72.6779 79.2112 75.1168 81.2318 77.5149 83.2982C80.7651 86.0943 83.8521 89.0639 86.5206 92.4263C87.3421 93.4672 87.9442 94.6816 88.7707 95.7174C90.031 97.2991 90.8984 99.0441 91.3984 100.993C91.4597 101.228 91.5821 101.442 91.6842 101.677C93.169 100.85 93.5006 99.5033 93.5618 98.0797C93.6435 96.2072 92.9189 94.503 91.8883 93.0386C90.6382 91.2681 89.2708 89.5333 87.689 88.0587C84.9848 85.5382 82.1071 83.2013 79.2548 80.844C77.6578 79.5225 75.9332 78.3591 74.3311 77.0427C72.5606 75.5886 70.8309 74.0783 69.1573 72.5118C67.7235 71.175 66.351 69.7668 65.0346 68.3177C62.0905 65.0675 59.871 61.3326 58.177 57.3068C57.3147 55.2659 56.5035 53.1637 56.0442 51.0054C55.4013 47.9848 55.0187 44.8979 54.7023 41.8161C54.4472 39.3057 54.4421 36.7648 54.3401 34.2391C54.3094 33.6421 54.3299 33.0452 54.3299 32.4482ZM134.437 70.3587C134.498 70.2515 134.554 70.1495 134.615 70.0423C134.228 69.7158 133.799 69.4198 133.472 69.0422C133.207 68.7412 132.886 68.3177 132.916 67.9708C132.967 67.3074 133.161 66.6237 133.457 66.0268C133.927 65.0777 134.447 64.1338 135.08 63.2919C136.274 61.7102 137.437 60.0774 138.84 58.6896C141.575 55.9853 144.473 53.4444 147.279 50.8115C147.55 50.5564 147.754 50.1074 147.785 49.7298C147.866 48.6226 147.856 47.5052 147.861 46.3929C147.881 43.1733 148.091 39.969 148.657 36.7954C148.718 36.4433 148.667 36.0708 148.667 35.5045C148.336 35.7341 148.132 35.8004 148.065 35.9331C147.83 36.4178 147.514 36.9127 147.458 37.4281C147.116 40.4742 146.841 43.5254 146.545 46.5766C146.489 47.1481 146.458 47.7195 146.417 48.3216C145.274 47.9083 144.213 48.2502 143.856 49.0716C143.453 49.9952 143.876 50.8524 144.162 51.7402C143.534 51.1126 143.33 49.9186 142.09 50.3115C141.203 50.587 141.029 51.3473 141.07 52.179C139.82 51.8473 139.146 52.0004 139.034 52.8678C138.937 53.6127 139.264 54.4087 139.396 55.1383C139.422 55.1536 139.35 55.1332 139.32 55.0873C138.753 54.2199 137.963 53.924 137.238 54.3169C136.539 54.6995 136.381 55.5669 136.835 56.5058C136.973 56.7915 137.09 57.0925 137.294 57.5722C136.36 56.9548 135.651 56.1027 134.636 57.0415C133.58 58.0161 134.034 59.0314 134.62 60.1897C134.376 60.0672 134.274 60.0315 134.192 59.9703C133.345 59.3376 132.85 59.2508 132.273 59.6488C131.625 60.0978 131.549 60.5723 131.916 61.6693C131.977 61.8428 131.983 62.0418 132.023 62.3122C131.079 61.7867 130.498 61.8275 129.845 62.3429C128.891 63.0929 129.406 63.8991 129.799 64.7155C129.11 64.4348 128.493 64.3889 128.059 64.9757C127.62 65.5675 127.13 65.69 126.477 65.4247C126.283 65.343 126.064 65.3175 125.85 65.3073C124.074 65.2053 122.293 65.1185 120.518 65.0216C120.497 65.1441 120.472 65.2716 120.451 65.3941C125.579 65.7206 130.319 67.1595 134.437 70.3587ZM69.3818 106.172C68.9991 105.504 68.9787 105.499 68.1062 105.779C67.8817 105.851 67.6419 105.876 67.4123 105.937C66.2847 106.254 65.1315 106.504 64.0396 106.912C62.4273 107.514 60.8711 108.264 59.2587 108.881C56.6769 109.866 55.0442 111.708 54.1615 114.28C53.6104 115.887 53.0645 117.499 52.5032 119.107C52.3705 119.479 52.1869 119.836 52.0287 120.204C52.1103 120.255 52.1971 120.306 52.2787 120.357C52.6563 119.872 53.0849 119.418 53.4114 118.897C54.5033 117.163 55.5187 115.382 56.6514 113.673C57.4117 112.524 58.5648 111.877 59.8251 111.28C61.7895 110.351 63.7845 109.912 65.9479 109.861C67.0296 109.836 68.1368 109.514 69.1777 109.157C70.5706 108.677 71.8666 107.902 73.2749 107.494C76.173 106.647 79.1222 105.958 82.0458 105.192C82.2805 105.131 82.4948 104.983 82.7193 104.876C82.6938 104.789 82.6683 104.703 82.6377 104.616C78.2344 105.136 73.8361 105.652 69.3818 106.172ZM90.0616 101.85C90.1076 101.83 90.1535 101.81 90.1943 101.789C90.1943 101.677 90.2198 101.554 90.1892 101.447C89.5208 99.0135 88.4187 96.748 87.0206 94.6867C85.7297 92.7835 84.1939 91.0334 82.6428 89.3241C81.3264 87.875 79.8671 86.5535 78.4181 85.2371C77.4843 84.3901 76.4281 83.6809 75.4689 82.8645C74.7393 82.2471 74.0811 81.5379 73.3667 80.9001C72.1422 79.8082 70.8921 78.7469 69.6675 77.6499C68.9685 77.0223 68.3052 76.3539 67.6266 75.7008C67.5858 75.7416 67.5398 75.7825 67.499 75.8233C67.5858 75.9559 67.6572 76.1039 67.7643 76.2162C69.989 78.5275 72.1983 80.8542 74.4484 83.1401C75.5046 84.2115 76.6424 85.1963 77.7241 86.2423C79.4589 87.921 81.2499 89.5435 82.8775 91.3191C84.199 92.7631 85.3726 94.3601 86.4951 95.9674C87.3931 97.2481 88.1176 98.6512 88.9238 99.9931C89.3014 100.621 89.6841 101.233 90.0616 101.85ZM143.652 78.2265C143.641 78.1499 143.636 78.0785 143.626 78.002C142.595 77.604 141.565 77.206 140.534 76.808C138.662 76.0784 136.799 75.3386 134.916 74.6344C134.692 74.5528 134.401 74.6497 134.003 74.665C134.901 75.512 135.677 76.1396 136.325 76.8744C136.952 77.5887 137.432 78.4357 138.014 79.1959C138.391 79.6909 138.866 79.8184 139.514 79.5735C140.672 79.1398 141.871 78.8184 143.055 78.451C143.259 78.3847 143.453 78.2979 143.652 78.2265Z" fill="#C68F21"/>
<path d="M119.104 139.97C119.196 139.689 119.247 139.531 119.313 139.332C118.472 138.776 117.619 138.215 116.762 137.654C116.747 137.572 116.737 137.49 116.721 137.404C117.635 137.011 118.523 136.536 119.466 136.256C120.364 135.99 121.344 135.99 122.252 135.755C122.905 135.587 123.528 135.271 124.12 134.934C125.599 134.097 127.059 133.225 128.508 132.337C129.875 131.505 131.232 130.653 132.574 129.781C133.074 129.459 133.513 129.398 134.095 129.612C136.269 130.413 138.463 131.168 140.651 131.924C141.947 132.373 143.254 132.786 144.555 133.225C144.784 133.306 144.994 133.449 145.325 133.623C144.779 134.046 144.325 134.393 143.876 134.74C143.886 134.801 143.897 134.863 143.907 134.924C144.346 134.985 144.784 135.051 145.223 135.107C150.106 135.715 154.989 136.322 159.872 136.929C160.5 137.006 161.137 137.051 161.76 137.174C162.041 137.23 162.336 137.398 162.546 137.592C164.75 139.633 166.923 141.7 169.128 143.736C170.204 144.731 171.342 145.654 172.434 146.639C174.077 148.124 175.699 149.639 177.337 151.129C178.929 152.578 180.552 153.996 182.139 155.451C184.379 157.507 186.603 159.583 188.833 161.65C188.904 161.716 188.996 161.783 189.017 161.864C189.333 163.053 189.654 164.242 189.925 165.441C189.945 165.543 189.624 165.824 189.44 165.849C188.976 165.91 188.496 165.87 188.022 165.87C134.733 165.91 81.4437 165.951 28.1548 165.997C27.6955 165.997 27.2363 165.997 26.6036 165.997C26.8128 165.681 26.8792 165.538 26.9812 165.431C28.5527 163.778 30.1396 162.13 31.7009 160.466C32.0172 160.129 32.3132 160.124 32.7163 160.237C34.6092 160.757 36.5073 161.257 38.4054 161.752C38.584 161.798 38.7881 161.834 38.9615 161.788C40.2779 161.446 41.6199 161.155 42.9006 160.701C44.7935 160.038 46.6355 159.231 48.5131 158.527C49.1152 158.303 49.5285 157.986 49.8755 157.405C50.7582 155.951 51.7684 154.573 52.7277 153.16C53.4318 152.124 54.1359 151.088 54.8299 150.047C56.4575 147.588 58.0341 145.093 60.2639 143.108C60.4578 142.934 60.7537 142.807 61.0088 142.797C64.4121 142.633 67.8204 142.475 71.2237 142.353C71.984 142.327 72.484 142.001 72.9381 141.414C73.3361 140.904 73.8973 140.521 74.3413 140.036C74.9127 139.414 75.4434 138.756 75.9893 138.108C76.7292 137.235 76.7241 137.235 77.571 138.021C79.2956 139.628 81.0304 141.235 82.755 142.848C84.6225 144.588 86.4849 146.333 88.3472 148.078C88.9646 148.654 89.1432 148.619 89.7044 148.001C90.8627 146.72 92.0566 145.47 93.2506 144.215C94.0976 143.322 95.0109 142.491 95.7915 141.547C96.3018 140.929 96.7814 140.883 97.4396 141.179C99.4703 142.082 101.506 142.96 103.537 143.858C103.92 144.026 104.261 144.333 104.654 144.424C104.971 144.496 105.461 144.46 105.675 144.261C106.746 143.266 107.772 142.215 108.777 141.149C109.741 140.133 110.66 139.077 111.599 138.041C112.313 137.256 112.4 137.24 113.415 137.654C115.293 138.419 117.176 139.184 119.104 139.97Z" fill="#C68F21"/>
<path d="M4.08705 201.53V189.555H6.10352e-05V185.738H12.4702V189.555H8.38323V201.53H4.08705Z" fill="#C68F21"/>
<path d="M21.9197 201.53L20.7309 198.422H15.8785L14.858 201.53H10.2404L16.2459 185.738H20.6186L26.7108 201.53H21.9197ZM19.5879 194.805L18.3532 191.243L17.149 194.805H19.5879Z" fill="#C68F21"/>
<path d="M37.8748 201.53C37.8748 201.53 31.0019 192.575 30.9815 192.545C30.9815 192.56 30.9815 201.53 30.9815 201.53H26.8384V185.738H30.9509C30.9509 185.738 37.6401 194.534 37.6605 194.56C37.6605 194.54 37.6605 185.738 37.6605 185.738H41.8036V201.53H37.8748Z" fill="#C68F21"/>
<path d="M59.6721 201.53V195.412H54.483V201.53H50.197V185.738H54.483V191.606H59.6721V185.738H63.9581V201.53H59.6721Z" fill="#C68F21"/>
<path d="M73.8209 201.918C72.8667 201.918 71.9177 201.754 71.0044 201.428C70.0911 201.106 69.2441 200.632 68.4838 200.03C67.4991 199.244 66.7337 198.29 66.2082 197.198C65.6826 196.106 65.4173 194.912 65.4173 193.657C65.4173 192.529 65.6265 191.458 66.0398 190.468C66.4531 189.478 67.0705 188.58 67.8715 187.81C68.6522 187.049 69.5757 186.452 70.6115 186.029C71.6473 185.611 72.7239 185.396 73.8209 185.396C74.9128 185.396 75.9843 185.611 77.0149 186.029C78.0405 186.447 78.964 187.044 79.7498 187.81C80.5458 188.58 81.1581 189.478 81.5713 190.473C81.9846 191.468 82.1938 192.534 82.1938 193.657C82.1938 194.774 81.9795 195.846 81.5662 196.846C81.1478 197.846 80.5356 198.739 79.7498 199.499C78.9385 200.275 78.015 200.877 76.9945 201.29C75.9792 201.708 74.9128 201.918 73.8209 201.918ZM73.8209 189.325C72.6524 189.325 71.7136 189.728 70.9482 190.555C70.1727 191.397 69.7951 192.412 69.7951 193.667C69.7951 194.938 70.1676 195.958 70.9278 196.774C71.6779 197.581 72.6269 197.974 73.8209 197.974C74.9893 197.974 75.923 197.576 76.6782 196.764C77.4435 195.938 77.816 194.922 77.816 193.662C77.816 192.417 77.4384 191.402 76.6578 190.555C75.8975 189.728 74.9689 189.325 73.8209 189.325Z" fill="#C68F21"/>
<path d="M92.9955 201.53L91.8067 198.422H86.9543L85.9339 201.53H81.3162L87.3217 185.738H91.6944L97.7866 201.53H92.9955ZM90.6586 194.805L89.4239 191.243L88.2197 194.805H90.6586Z" fill="#C68F21"/>
<path d="M108.951 201.53C108.951 201.53 102.078 192.575 102.057 192.545C102.057 192.56 102.057 201.53 102.057 201.53H97.9142V185.738H102.027C102.027 185.738 108.716 194.534 108.736 194.56C108.736 194.54 108.736 185.738 108.736 185.738H112.879V201.53H108.951Z" fill="#C68F21"/>
<path d="M122.788 201.918C120.37 201.918 118.344 201.132 116.767 199.576C115.186 198.019 114.385 196.024 114.385 193.642C114.385 191.279 115.191 189.294 116.778 187.738C118.364 186.187 120.385 185.406 122.788 185.406C124.069 185.406 125.258 185.682 126.329 186.218C127.396 186.753 128.355 187.56 129.181 188.616L129.549 189.085L126.513 191.33L126.166 190.897C125.697 190.31 125.202 189.886 124.696 189.636C124.202 189.386 123.61 189.264 122.946 189.264C121.65 189.264 120.655 189.646 119.895 190.437C119.13 191.233 118.757 192.279 118.757 193.647C118.757 194.984 119.13 196.024 119.9 196.831C120.666 197.627 121.64 198.014 122.885 198.014C123.778 198.014 124.503 197.81 125.033 197.407C125.411 197.121 125.63 196.795 125.722 196.392H122.247V192.657H129.988L130.064 193.147C130.079 193.254 130.09 193.371 130.095 193.494C130.1 193.596 130.1 193.759 130.1 193.973C130.1 196.305 129.416 198.229 128.069 199.693C126.712 201.168 124.931 201.918 122.788 201.918Z" fill="#C68F21"/>
<path d="M150.963 201.53L149.902 192.805L147.014 201.53H144.417L141.555 192.749L140.504 201.53H136.345L138.753 185.738H142.948L145.723 194.228L148.56 185.738H152.698L155.117 201.53H150.963Z" fill="#C68F21"/>
<path d="M160.239 185.738H155.953V201.53H160.239V185.738Z" fill="#C68F21"/>
<path d="M173.455 201.53C173.455 201.53 166.582 192.575 166.561 192.545C166.561 192.56 166.561 201.53 166.561 201.53H162.418V185.738H166.531C166.531 185.738 173.22 194.534 173.24 194.56C173.24 194.54 173.24 185.738 173.24 185.738H177.383V201.53H173.455Z" fill="#C68F21"/>
<path d="M188.966 201.53V195.412H183.777V201.53H179.491V185.738H183.777V191.606H188.966V185.738H193.252V201.53H188.966Z" fill="#C68F21"/>
<path d="M69.7799 226.48C67.3613 226.48 65.3357 225.695 63.7591 224.138C62.1774 222.582 61.3763 220.587 61.3763 218.204C61.3763 215.842 62.1825 213.857 63.7693 212.301C65.351 210.75 67.3766 209.969 69.7799 209.969C71.0605 209.969 72.2494 210.245 73.3209 210.78C74.3873 211.316 75.3465 212.122 76.1731 213.179L76.5405 213.648L73.5046 215.893L73.1576 215.459C72.6882 214.872 72.1933 214.449 71.6881 214.199C71.1932 213.949 70.6013 213.826 69.938 213.826C68.642 213.826 67.6471 214.209 66.8868 215C66.1215 215.796 65.749 216.847 65.749 218.209C65.749 219.546 66.1215 220.587 66.8919 221.393C67.6573 222.189 68.6318 222.577 69.8768 222.577C70.7697 222.577 71.4942 222.373 72.0249 221.97C72.4025 221.684 72.6219 221.358 72.7137 220.954H69.239V217.22H76.9793L77.0558 217.709C77.0711 217.817 77.0813 217.934 77.0864 218.056C77.0915 218.158 77.0915 218.322 77.0915 218.536C77.0915 220.868 76.4078 222.791 75.0608 224.256C73.7036 225.73 71.9228 226.48 69.7799 226.48Z" fill="#C68F21"/>
<path d="M85.6328 226.093L82.6989 220.883V226.093H78.413V210.301H83.4694C85.3726 210.301 86.837 210.689 87.8217 211.459C88.8524 212.26 89.3728 213.459 89.3728 215.031C89.3728 216.174 89.0208 217.169 88.3268 217.985C87.8115 218.587 87.1839 219.011 86.4492 219.25L90.6025 226.098H85.6328V226.093ZM82.704 216.536C84.1735 216.526 84.6429 216.316 84.7807 216.22C84.8674 216.158 85.1379 215.975 85.1379 215.255C85.1379 214.48 84.8317 214.265 84.7297 214.194C84.546 214.066 84.0409 213.852 82.704 213.842V216.536Z" fill="#C68F21"/>
<path d="M98.5826 226.48C97.6285 226.48 96.6794 226.317 95.7661 225.991C94.8528 225.669 94.0058 225.195 93.2455 224.593C92.2608 223.807 91.4954 222.853 90.9699 221.761C90.4443 220.669 90.179 219.475 90.179 218.22C90.179 217.092 90.3882 216.021 90.8015 215.031C91.2148 214.041 91.8322 213.143 92.6332 212.372C93.4139 211.612 94.3374 211.015 95.3732 210.592C96.409 210.173 97.4856 209.959 98.5826 209.959C99.6745 209.959 100.746 210.173 101.777 210.592C102.802 211.01 103.726 211.607 104.512 212.372C105.307 213.143 105.92 214.041 106.333 215.036C106.746 216.031 106.956 217.097 106.956 218.22C106.956 219.337 106.741 220.409 106.328 221.409C105.91 222.409 105.297 223.302 104.512 224.062C103.7 224.837 102.777 225.44 101.756 225.853C100.741 226.271 99.6745 226.48 98.5826 226.48ZM98.5826 213.888C97.4142 213.888 96.4753 214.291 95.71 215.117C94.9344 215.959 94.5568 216.975 94.5568 218.23C94.5568 219.5 94.9293 220.521 95.6896 221.337C96.4396 222.143 97.3886 222.536 98.5826 222.536C99.751 222.536 100.685 222.138 101.44 221.327C102.205 220.5 102.578 219.485 102.578 218.225C102.578 216.98 102.2 215.964 101.419 215.117C100.664 214.291 99.7306 213.888 98.5826 213.888Z" fill="#C68F21"/>
<path d="M115.308 226.48C113.027 226.48 111.288 225.934 110.134 224.858C108.971 223.771 108.384 222.128 108.384 219.985V210.301H112.65V219.495C112.65 220.551 112.869 221.342 113.308 221.837C113.732 222.317 114.369 222.552 115.262 222.552C116.165 222.552 116.813 222.312 117.247 221.827C117.696 221.327 117.921 220.541 117.921 219.495V210.301H122.186V219.985C122.186 222.128 121.594 223.766 120.436 224.853C119.278 225.934 117.553 226.48 115.308 226.48Z" fill="#C68F21"/>
<path d="M124.263 226.093V210.301H129.789C131.835 210.301 133.564 210.714 134.585 211.525C135.641 212.372 136.177 213.663 136.177 215.378C136.177 216.964 135.646 218.235 134.595 219.153C133.569 220.051 132.222 220.505 130.457 220.505H128.569V226.093H124.263ZM128.569 216.878H129.982C131.58 216.878 132.034 216.225 132.034 215.255C132.034 214.327 131.508 213.796 130.023 213.796H128.574V216.878H128.569Z" fill="#C68F21"/>
</svg>
