<svg width="302" height="165" viewBox="0 0 302 165" fill="none" xmlns="http://www.w3.org/2000/svg">
<path d="M37.251 161.944V163.748H0C0 147.081 7.62792 123.373 32.2403 118.233H0V116.43H37.1375V118.233C15.4699 118.969 5.03016 143.471 5.03016 161.944H37.251Z" fill="#EFE8DE"/>
<path d="M45.0341 116.43H78.8052V118.233H49.3507V137.893H75.8734V139.696H49.3507V161.941H80.0376V163.744H45.0341V116.43Z" fill="#EFE8DE"/>
<path d="M125.033 116.43V163.748H122.342L89.0148 122.092V163.748H87.1759V116.488H89.8872L123.191 157.881V116.43H125.033Z" fill="#EFE8DE"/>
<path d="M169.935 118.233H153.21V163.748H148.893V118.233H132.168V116.43H169.935V118.233Z" fill="#EFE8DE"/>
<path d="M214.928 116.43V146.176C214.928 157.076 205.951 164.587 195.94 164.587C184.579 164.587 177.074 155.383 177.074 146.176V116.43H181.391V145.955C181.391 154.433 188.085 161.824 197.295 161.824C206.334 161.824 213.128 155.114 213.128 145.955V116.43H214.928Z" fill="#EFE8DE"/>
<path d="M266.426 116.43H300.197V118.233H270.743V137.893H297.269V139.696H270.743V161.941H301.43V163.744H266.423V116.43H266.426Z" fill="#EFE8DE"/>
<path d="M260.505 163.748L260.398 163.421C257.631 162.857 255.157 161.66 252.877 159.354L237.186 141.669C241.795 141.669 246.024 140.154 249.079 137.683C252.069 135.264 253.937 131.923 253.937 128.184C253.937 124.023 252.316 121.201 249.578 119.372C246.452 117.284 241.873 116.492 236.59 116.492H222.06V163.752L226.377 163.719V141.711L234.978 141.721L249.345 163.457C249.465 163.638 249.669 163.748 249.887 163.748H260.505ZM226.38 139.918V118.292L236.813 118.286C240.968 118.286 243.851 119.22 245.943 121.175C247.772 122.884 249.079 125.398 249.079 128.482C249.079 131.884 247.983 134.667 245.862 136.636C243.592 138.744 240.144 139.918 235.62 139.918H226.38Z" fill="#EFE8DE"/>
<path d="M150.689 0C129.083 0 111.566 17.5131 111.566 39.1223C111.566 60.7283 129.083 78.2447 150.689 78.2447C172.295 78.2447 189.811 60.7283 189.811 39.1223C189.808 17.5131 172.291 0 150.689 0ZM150.689 0.65512C162.413 0.65512 172.694 7.94252 178.447 18.885C178.538 19.0601 178.411 19.2677 178.214 19.2677H134.901C131.528 19.2677 128.791 16.5175 128.823 13.1446C128.823 13.1056 128.823 13.0667 128.823 13.0278C128.843 11.3349 129.572 9.73275 130.824 8.59764C136.328 3.61613 143.213 0.65512 150.689 0.65512ZM153.815 65.7455C139.318 57.2354 130.85 39.0802 129.096 21.6806C129.08 21.5249 129.203 21.3919 129.358 21.3919H153.815V65.7455ZM118.056 39.1223C118.056 30.9042 120.245 23.2859 123.968 17.0364C124.108 16.8029 124.464 16.9099 124.455 17.1823C123.618 40.1861 134.496 63.2742 161.664 70.6622C163.324 71.113 166.327 71.4211 167.696 71.5475C167.939 71.5702 168.02 71.8848 167.819 72.0243C162.938 75.381 156.692 77.5928 150.692 77.5928C132.666 77.5863 118.056 60.3618 118.056 39.1223ZM158.995 68.2557C158.962 68.2428 158.93 68.2298 158.897 68.2168V21.3919H170.232C176.864 21.3919 181.823 25.9486 182.786 32.1301C183.14 34.397 183.325 36.7354 183.325 39.1223C183.325 47.9859 180.779 56.149 176.508 62.6515C172.726 68.4017 165.403 70.753 158.995 68.2557Z" fill="#EFE8DE"/>
</svg>
