<svg width="50" height="50" viewBox="0 0 50 50" fill="none" xmlns="http://www.w3.org/2000/svg">
<path d="M50 10.9914V39.0086C50 45.0813 45.0758 50 39.0086 50H28.2864V30.6331H34.7824L35.7606 23.0875H28.2864V18.2732C28.2864 16.086 28.891 14.5966 32.0235 14.5966H36.0189V7.84788C35.3264 7.75995 32.9578 7.55111 30.1989 7.55111C24.4339 7.55111 20.4935 11.0684 20.4935 17.5258V23.093H13.9756V30.6386H20.4935V50H10.9914C4.91866 50 0 45.0813 0 39.0086V10.9914C0 4.92416 4.91866 0 10.9914 0H39.0086C45.0758 0 50 4.92416 50 10.9914Z" fill="white" fill-opacity="0.5"/>
</svg>
